<svg xmlns="http://www.w3.org/2000/svg" viewBox="0 0 547.3 146.9"><linearGradient id="a" gradientUnits="userSpaceOnUse" x1="3.034" y1="73.475" x2="212.691" y2="73.475"><stop offset="0" stop-color="#1c75bc"/><stop offset="1" stop-color="#00aeef"/></linearGradient><path fill="url(#a)" d="M121.4 11.2v126.3H112V5.3L103.7 0 3 63.8v83.1h28.2l.1-67.5 44.2-28V40.3L21.9 74.2v63.3h-9.5V69l72.5-45.8v123.7h9.4V17.2l9.4-5.9v135.6h27.1V28.5l72.5 45.8v63.2h-9.4V79.4l-53.7-33.9v11.2l44.3 27.9v62.3h28.2V69.1z"/><path d="M232.8 64v-7.1h30.5V64h-10.6v31.5h-9.4V64h-10.5zm39.5 26.2c-3.8-3.7-5.7-8.5-5.7-14.2 0-5.7 1.9-10.4 5.7-14.2 3.8-3.7 8.5-5.6 14.1-5.6s10.2 1.9 14 5.6c3.8 3.7 5.7 8.4 5.7 14.2 0 5.7-1.9 10.5-5.7 14.2-3.8 3.7-8.5 5.6-14 5.6-5.6 0-10.2-1.8-14.1-5.6zm21.5-6.1c1.9-2 2.8-4.7 2.8-8.1 0-3.4-.9-6.1-2.8-8.1s-4.3-3-7.4-3c-3.1 0-5.6 1-7.4 3-1.9 2-2.8 4.7-2.8 8.1 0 3.4.9 6.1 2.8 8.1s4.3 3 7.4 3c3.1 0 5.5-1 7.4-3zM355 56.8h10.1l-10.8 38.6h-10.8L336.8 71l-6.7 24.5h-10.8l-10.9-38.6h10.1l6.7 27.8 6.9-27.8h10.7l6.6 27.3 5.6-27.4zm39.8-.1h9.4v38.7h-9.4L379.1 71v24.4h-9.4V56.7h9.4l15.7 24.4V56.7zm27.6 38.7l-13.7-38.6h10l9.6 29.4 9.6-29.4h10l-13.7 38.6h-11.8zm30 0V56.8h9.4v38.6h-9.4zM470 56.8h9.4v31.5h11.7v7.1H470V56.8zm26.4 0h9.4v31.5h11.7v7.1h-21.1V56.8zm49.7-.1v7.2h-14v8.3h12.3v7.1h-12.3v9h14v7.1h-23.4V56.7h23.4zm-297.3 58.6v3.8h-2.4v-9.8h3.9c1.1 0 2 .3 2.7.9s1 1.3 1 2.1c0 .6-.2 1.1-.5 1.7-.3.5-.9.9-1.7 1.1l2.4 4h-2.8l-2.2-3.8h-.4zm0-4.2v2.4h1.5c.4 0 .7-.1.9-.3s.3-.5.3-.8c0-.4-.1-.6-.3-.9-.2-.2-.5-.3-.9-.3h-1.5zm21.3-1.9v1.8h-3.6v2.1h3.1v1.8h-3.1v2.3h3.6v1.8h-6v-9.9h6zm16.7 9.9l-.5-1.7h-3.5l-.5 1.7h-2.5l3.4-9.9h2.9l3.4 9.9h-2.7zm-3.5-3.5h2.3l-1.2-3.5-1.1 3.5zm15.6-6.3h2.4v8h3v1.8h-5.4v-9.8zm21.1-.1v1.8h-3.6v2.1h3.1v1.8h-3.1v2.3h3.6v1.8h-6v-9.9h6zm13.8 1.8c-.3 0-.5.1-.7.2-.2.2-.3.4-.3.7 0 .3.1.5.3.7.2.2.4.3.7.4.3.1.6.2 1 .3.3.1.7.2 1 .3.3.1.7.3.9.5.3.2.5.5.7.8.2.3.3.7.3 1.2 0 .8-.3 1.5-1 2.1s-1.6.9-2.7.9-2-.3-2.7-.8c-.7-.5-1-1.3-1-2.3h2.5c.1.8.5 1.2 1.2 1.2.3 0 .6-.1.8-.3.2-.2.3-.4.3-.7s-.1-.5-.3-.7c-.2-.2-.4-.3-.7-.4-.3-.1-.6-.2-1-.3-.4-.1-.7-.2-1-.3-.3-.1-.7-.3-.9-.5-.3-.2-.5-.4-.7-.8-.2-.3-.3-.7-.3-1.2 0-.9.3-1.6 1-2.2.7-.6 1.6-.8 2.6-.8 1.1 0 1.9.2 2.6.7s1 1.2 1 2.3h-2.6c0-.4-.2-.6-.3-.8s-.4-.2-.7-.2zm13.4.1v-1.8h7.8v1.8h-2.7v8h-2.4v-8h-2.7zm23.9 8l-.5-1.7H367l-.5 1.7H364l3.4-9.9h2.9l3.4 9.9h-2.6zm-3.5-3.5h2.3l-1.2-3.5-1.1 3.5zm14.9-4.5v-1.8h7.8v1.8h-2.7v8h-2.4v-8h-2.7zm23.5-1.9v1.8h-3.6v2.1h3.1v1.8h-3.1v2.3h3.6v1.8h-6v-9.9h6zm9.6 1.8c-.3 0-.5.1-.7.2-.2.2-.3.4-.3.7 0 .3.1.5.3.7.2.2.4.3.7.4.3.1.6.2 1 .3.3.1.7.2 1 .3.3.1.7.3.9.5.3.2.5.5.7.8.2.3.3.7.3 1.2 0 .8-.3 1.5-1 2.1s-1.6.9-2.7.9-2-.3-2.7-.8c-.7-.5-1-1.3-1-2.3h2.5c.1.8.5 1.2 1.2 1.2.3 0 .6-.1.8-.3.2-.2.3-.4.3-.7s-.1-.5-.3-.7c-.2-.2-.4-.3-.7-.4-.3-.1-.6-.2-1-.3-.4-.1-.7-.2-1-.3-.3-.1-.7-.3-.9-.5-.3-.2-.5-.4-.7-.8-.2-.3-.3-.7-.3-1.2 0-.9.3-1.6 1-2.2.7-.6 1.6-.8 2.6-.8 1.1 0 1.9.2 2.6.7s1 1.2 1 2.3h-2.6c0-.4-.2-.6-.3-.8s-.4-.2-.7-.2zm20.1-1.8v1.8h-3.6v2.1h3.1v1.8h-3.1v2.3h3.6v1.8h-6v-9.9h6zm12.9 6.1v3.8h-2.4v-9.8h3.9c1.1 0 2 .3 2.7.9s1 1.3 1 2.1c0 .6-.2 1.1-.5 1.7-.3.5-.9.9-1.7 1.1l2.4 4h-2.8l-2.2-3.8h-.4zm0-4.2v2.4h1.5c.4 0 .7-.1.9-.3s.3-.5.3-.8c0-.4-.1-.6-.3-.9-.2-.2-.5-.3-.9-.3h-1.5zm17.9 8l-3.5-9.8h2.5l2.4 7.5 2.4-7.5h2.5l-3.5 9.8h-2.8zm16 0v-9.8h2.4v9.8h-2.4zm13.8-1.3c-1-.9-1.5-2.1-1.5-3.6s.5-2.7 1.5-3.6c1-.9 2.2-1.4 3.6-1.4 1.1 0 2.1.3 2.9.9.8.6 1.4 1.4 1.8 2.4h-2.9c-.4-.7-1-1.1-1.8-1.1s-1.5.3-1.9.8c-.5.5-.7 1.2-.7 2.1 0 .9.2 1.5.7 2.1.5.5 1.1.8 1.9.8s1.4-.4 1.8-1.1h2.9c-.3 1-.9 1.8-1.8 2.4-.8.6-1.8.9-2.9.9-1.5-.2-2.7-.7-3.6-1.6zm24.1-8.6v1.8h-3.6v2.1h3.1v1.8h-3.1v2.3h3.6v1.8h-6v-9.9h6zm13.8 1.8c-.3 0-.5.1-.7.2-.2.2-.3.4-.3.7 0 .3.1.5.3.7.2.2.4.3.7.4.3.1.6.2 1 .3.3.1.7.2 1 .3.3.1.7.3.9.5.3.2.5.5.7.8.2.3.3.7.3 1.2 0 .8-.3 1.5-1 2.1s-1.6.9-2.7.9-2-.3-2.7-.8c-.7-.5-1-1.3-1-2.3h2.5c.1.8.5 1.2 1.2 1.2.3 0 .6-.1.8-.3.2-.2.3-.4.3-.7s-.1-.5-.3-.7c-.2-.2-.4-.3-.7-.4-.3-.1-.6-.2-1-.3-.4-.1-.7-.2-1-.3-.3-.1-.7-.3-.9-.5-.3-.2-.5-.4-.7-.8-.2-.3-.3-.7-.3-1.2 0-.9.3-1.6 1-2.2.7-.6 1.6-.8 2.6-.8 1.1 0 1.9.2 2.6.7s1 1.2 1 2.3h-2.6c0-.4-.2-.6-.3-.8s-.4-.2-.7-.2z" fill="#FFF"/></svg>