<svg xmlns="http://www.w3.org/2000/svg" viewBox="0 0 600 600"><g fill="#5A5A5A"><path d="M-666.6 760.9h1880.3v940.2H-666.6zM94 512.8v-42.4h18.3c7.8 0 11.8 3.3 11.8 9.8 0 5.2-3.9 9.8-11.8 12.4l14.4 19.6h-7.2l-13.7-18.9V490c7.8-1.3 11.8-4.6 11.8-9.1 0-3.9-2-5.9-6.5-5.9H99.2v37.9H94zm66-42.4v4.6h-22.2v14.4h20.9v3.9h-20.9v15h22.9v4.6h-28.1v-42.4H160zm9.7 42.4h-5.9l17.6-42.4h5.9l18.3 42.4h-5.9l-5.2-13.1h-13.7l1.3-4.6h10.4l-7.8-18.9-15 36.6zm47.7-42.4v37.9h22.2v4.6h-27.4v-42.4h5.2zm70.5 0v4.6h-22.2v14.4h21.5v3.9h-20.9v15h22.9v4.6h-28.1v-42.4h26.8zm8.5 40.5v-4.6c4.6 1.3 9.1 2.6 14.4 2.6 7.2 0 11.1-2.6 11.1-7.8 0-4.6-2.6-6.5-7.8-6.5h-5.2c-9.1 0-13.1-3.9-13.1-11.8 0-7.8 5.9-11.8 17-11.8 5.2 0 9.8.7 13.7 2v5.2c-3.9-1.3-8.5-2.6-13.7-2.6-7.8 0-11.8 2.6-11.8 7.8 0 4.6 2.6 6.5 7.8 6.5h4.6c9.1 0 13.7 3.9 13.7 11.8 0 8.5-5.2 12.4-16.3 12.4-5.3-1.3-10.5-1.9-14.4-3.2zm66.6-40.5v4.6h-13.1v37.9h-5.2V475h-13.1v-4.6H363zm3.3 42.4h-5.9l17.6-42.4h5.9l18.3 42.4h-5.9l-5.2-13.1h-13.7l1.3-4.6h10.4l-7.8-18.9-15 36.6zm65.9-42.4v4.6h-13.1v37.9h-5.2V475h-13.1v-4.6h31.4zm34.6 0v4.6h-22.2v14.4h20.9v3.9h-20.9v15h22.9v4.6h-28.1v-42.4h27.4zM75.7 531.1l3.3 6.5 3.3-6.5h2.6l-4.6 8.5v4.6h-2.6v-4.6l-4.6-8.5h2.6zm22.9 13.1c-.7 0-2 0-2.6-.7-.7-.7-1.3-.7-2-1.3s-.7-1.3-1.3-2c0-.7-.7-1.3-.7-2.6 0-.7 0-2 .7-2.6 0-.7.7-1.3 1.3-2 .7-.7 1.3-1.3 2-1.3.7-.7 1.3-.7 2.6-.7.7 0 2 0 2.6.7.7.7 1.3.7 2 1.3.7.7.7 1.3 1.3 2 0 .7.7 1.3.7 2.6 0 .7 0 2-.7 2.6 0 .7-.7 1.3-1.3 2-.7.7-1.3 1.3-2 1.3-1.3 0-2 .7-2.6.7zm-3.9-6.6v1.3c0 .7.7 1.3.7 1.3 0 .7.7.7 1.3.7.7 0 .7.7 1.3.7.7 0 1.3 0 1.3-.7.7 0 .7-.7 1.3-1.3 0-.7.7-.7.7-1.3v-2.6c0-.7-.7-1.3-.7-1.3 0-.7-.7-.7-1.3-.7-.7 0-.7-.7-1.3-.7s-1.3 0-1.3.7c-.7 0-.7.7-1.3 1.3 0 .7-.7.7-.7 1.3v1.3zm24.8 4c.7 0 1.3 0 1.3-.7.7 0 .7-.7 1.3-.7 0-.7.7-.7.7-1.3v-7.8h2.6v9.1c0 .6-.7 1.3-1.3 2-.7.7-1.3 1.3-2 1.3-.7.7-1.3.7-2.6.7s-2 0-2.6-.7-1.3-.7-2-1.3c-.7-.7-.7-1.3-.7-2v-9.1h2.6v7.8c0 .7 0 .7.7 1.3 0 .7.7.7.7.7 0 .7.6.7 1.3.7zm15 2.6v-13.1h5.9c.7 0 1.3 0 2 .7.7 0 .7.7 1.3 1.3.7.7.7.7.7 1.3v1.3c0 .7 0 1.3-.7 2.6 0 0-.7.7-1.3.7l3.3 4.6H143l-2.6-4.6h-3.3v4.6h-2.6v.6zm2.6-7.2h4s.7 0 .7-.7c0 0 0-.7.7-.7v-1.3s0-.7-.7-.7l-.7-.7h-4v4.1zm37.9-3.9h-3.9v10.4h-2.6v-10.4h-3.9v-2h11.1v2h-.7zm6.5 11.1l5.2-13.1h2l5.2 13.1h-2.6l-1.3-3.3h-4.6l-1.3 3.3h-2.6zm6.5-10.5l-2 5.2h3.3l-1.3-5.2zm23.5 8.5c-1.3 1.3-2 1.3-3.3 1.3-.7 0-1.3 0-2.6-.7-.7-.7-1.3-.7-2-1.3-.7-.7-.7-1.3-1.3-2 0-.7-.7-2-.7-2.6s0-2 .7-2.6c0-.7.7-1.3 1.3-2 .7-.7 1.3-1.3 2-1.3.7-.7 1.3-.7 2.6-.7s2 0 3.3.7l2 2-2 1.3c0-.7-.7-1.3-1.3-1.3-.7-.7-1.3-.7-2-.7s-1.3 0-1.3.7c-.7 0-.7.7-1.3.7 0 .7-.7.7-.7 1.3v4c0 .7.7 1.3.7 1.3.7.7.7.7 1.3.7.7 0 .7.7 1.3.7 1.3 0 2-.7 3.3-2v-.7h-2.6v-2h4.6v6.5h-2v-1.3zm11.1 2v-13.1h2.6v10.4h6.5v2h-9.1v.7zm18.3 0v-13.1h2.6v13.1h-2.6zm15-8.5v8.5h-2.6v-13.1h2l6.5 8.5v-8.5h2.6v13.1h-2l-6.5-8.5zm28.1 5.9v2h-9.1v-13.1h9.1v2h-6.5v3.3h5.2v2h-5.2v3.3h6.5v.5zm28.7-7.2s-.6 0 0 0c-.7-.7-.7-.7-1.3-.7 0 0-.7 0-1.3-.7h-1.3c-.6 0-1.3 0-1.3.7-.7 0-.7.7-.7 1.3v.7s0 .7.7.7c0 0 .7 0 .7.7.7 0 .7 0 1.3.7.7 0 1.3.7 2 .7s.7.7 1.3.7c.7 0 .7.7.7 1.3v1.3c0 .6 0 1.3-.7 2 0 .7-.7.7-1.3 1.3-.7 0-.7.7-1.3.7h-2c-.7 0-2 0-2.6-.7-.7 0-2-.7-2.6-1.3l1.3-2 .7.7s.7.7 1.3.7c.7 0 .7 0 1.3.7h1.3c1.3 0 2-.7 2-1.3v-.7l-.7-.7s-.7 0-1.3-.7c-.7 0-.7 0-1.3-.7-.7 0-1.3-.7-1.3-.7-.7 0-.7-.7-1.3-.7l-.7-.7v-1.3c0-.7 0-1.3.7-2 0-.7.7-.7 1.3-1.3.7-.7.7-.7 1.3-.7h2c.7 0 2 0 2.6.7.7 0 1.3.7 2 1.3h-1.5zm10.5 9.8v-13.1h5.2c.7 0 1.3 0 2 .7.7 0 .7.7 1.3 1.3.7.7.7.7.7 1.3v2.6c0 .7-.7 1.3-.7 1.3-.7.7-.7.7-1.3.7-.7 0-1.3.7-2 .7h-3.3v4.6l-1.9-.1zm2.6-7.2h2.6c.7 0 .7 0 1.3-.7 0-.7.7-.7.7-1.3v-.7s0-.7-.7-.7c0 0-.7 0-.7-.7h-3.3l.1 4.1zm14.4 7.2l5.2-13.1h2l5.2 13.1H350l-1.3-3.3h-4.6l-1.3 3.3h-2.6zm5.8-10.5l-2 5.2h3.9l-1.9-5.2zm13.7 3.3c0-.7 0-1.3.7-2.6 0-.7.7-1.3 1.3-2s1.3-1.3 2-1.3c.7-.7 2-.7 2.6-.7 1.3 0 2 0 3.3.7l2 2-2 1.3c0-.7-.7-.7-.7-.7l-.7-.7h-1.4c-.7 0-1.3 0-1.3.7-.7 0-.7.7-1.3 1.3-.7.7-.7.7-.7 1.3v3.3c0 .7.7 1.3.7 1.3 0 .7.7.7 1.3.7.7 0 .7.7 1.3.7h.7s.7 0 .7-.7l.7-.7.7-.7 2 1.3c0 .7-.7.7-.7 1.3-.7.7-.7.7-1.3.7s-.7.7-1.3.7H367c-.7 0-2 0-2.6-.7s-1.3-.7-2-1.3c-.7-.7-.7-1.3-1.3-2-.7-1.2-1.4-1.9-1.4-3.2zm29.4 4.6v2H380v-13.1h9.1v2h-6.5v3.3h5.2v2h-5.2v3.3h6.5v.5zm32-10.5v13.1h-2.6V539h-5.9v5.2H410v-13.1h2.6v5.2h5.9v-5.2h2.6zm19.6 10.5v2h-9.1v-13.1h9.1v2h-6.5v3.3h5.2v2h-5.2v3.3h6.5v.5zm9.1 2.6v-13.1h5.9c.7 0 1.3 0 2 .7.7 0 .7.7 1.3 1.3.7.7.7.7.7 1.3v1.3c0 .7 0 1.3-.7 2.6-.7 0-1.3.7-2 .7l3.3 4.6h-2.6l-2.6-4.6h-2.6v4.6h-2.6v.6zm2.6-7.2h4s.7 0 .7-.7c0 0 0-.7.7-.7v-1.3s0-.7-.7-.7l-.7-.7h-4v4.1zm26.2 4.6v2h-9.1v-13.1h9.1v2H472v3.3h5.2v2H472v3.3h6.5v.5zm114.9-230.5c-3.9 2.6-10.4 5.9-18.3 9.8-3.9 2-8.5 3.9-13.1 5.9-2.6 1.3-4.6 2-7.2 3.3-2.6 1.3-5.2 2-7.8 3.3-11.8 3.3-24.2 7.2-37.9 9.8-11.8 2-24.2 3.3-37.2 3.9V161.6L445.3 142l-30-22.2-87.5-64-66.6 48.3-65.9-48.3-145 105.8v167.8c-2 1.3-3.9 2.6-5.2 3.9-2.6 2.6-5.2 4.6-7.8 6.5-9.8 9.1-17.6 17.6-22.9 25.5s-9.1 14.4-11.1 18.3c-1.3 2-2 3.9-2.6 5.2-.7 1.3-.7 2-.7 2l1.3-1.3c1.3-.7 3.3-1.3 5.2-3.3 2-1.3 4.6-2.6 7.2-4.6 1.3-.7 3.3-2 4.6-2.6 2-1.3 3.3-2 5.2-3.3 7.8-3.9 17-8.5 28.1-13.1 2.6-.7 5.2-2 8.5-3.3 3.3-.7 5.9-2 9.1-2.6 5.9-2 12.4-3.3 19.6-4.6 13.7-2.6 28.1-3.9 43.7-4.6s32 .7 49.6 2.6c17 2 34.6 5.2 52.9 9.1 17.6 3.9 35.9 9.1 54.2 15 4.6 1.3 9.1 2.6 13.7 4.6l6.5 2 3.9 1.3 3.3 1.3 7.2 2.6 3.9 1.3 3.9 1.3c5.2 1.3 11.1 3.3 16.3 4.6 20.9 5.2 42.4 7.8 63.3 9.1 20.9.7 41.1-1.3 60.1-5.2 18.9-3.9 35.9-10.4 50.9-17.6 7.2-3.9 14.4-7.8 20.9-11.8 3.3-2 5.9-3.9 9.1-6.5 2.6-2 5.2-3.9 7.8-6.5 5.2-4.6 9.8-8.5 13.7-12.4s7.2-7.8 10.4-11.8c5.9-7.2 9.8-13.1 12.4-17 1.3-2 2-3.9 2.6-4.6.7-1.3.7-2 .7-2l-6.3 4.2zM302.3 179.9v126.7c-18.3-5.9-36.6-10.4-54.8-13.1-20.9-3.3-42.4-5.2-62.7-5.2-6.5 0-13.7.7-20.2.7L286 167.5l16.3 12.4zm-107.1-78.4l35.3 25.5 26.1 18.9-158.7 158c-3.9 1.3-7.2 2.6-10.4 4.6V179.9l107.7-78.4zm221.3 240.3c-17-3.3-33.9-7.2-50.9-13.1-4.6-1.3-8.5-2.6-12.4-4.6l-3.9-.7-3.3-1.3-6.5-2.6v-158L312.7 142l-20.2-14.4 35.3-26.1 60.7 44.4 30 22.2 16.3 11.8v164.5c-5.9-.7-12.4-1.3-18.3-2.6z"/><path d="M297.7 413.6c-2.6-2-5.2-3.9-8.5-5.2-3.3-2-6.5-3.3-9.8-5.2-3.3-2-7.2-3.9-11.1-5.2-3.9-2-7.8-3.9-11.8-5.2-3.9-2-8.5-3.3-13.1-5.2-4.6-1.3-9.1-3.3-13.7-4.6-9.1-2.6-19.6-5.2-29.4-7.2-10.4-2-20.9-3.3-31.3-4.6-5.9-1.3-11.1-2-16.3-2h-15.6c-2.6 0-5.2 0-7.8.7-2.6 0-5.2.7-7.8.7-5.2.7-10.4 1.3-15 2-9.8 1.3-19.6 3.3-28.1 5.9-9.1 2.6-17 5.2-24.2 8.5-15 5.9-26.1 13.1-33.9 18.3-7.8 5.2-11.1 9.1-11.1 9.1s1.3 0 3.9-.7c2.6 0 5.9-.7 10.4-1.3 3.9-.7 9.1-1.3 15.7-1.3 5.9-.7 13.1-.7 20.2-1.3 7.2 0 15-.7 23.5-.7H109c4.6 0 9.1 0 13.7.7 4.6 0 9.1.7 13.7.7s9.1.7 14.4.7c4.6.7 9.8.7 14.4 1.3 9.8.7 18.9 2 28.7 2.6 9.1 1.3 18.9 2.6 28.1 3.3 4.6.7 9.1 1.3 13.1 2 4.6.7 8.5 1.3 13.1 2 3.9.7 8.5 1.3 12.4 2 3.9.7 7.8 1.3 11.8 2 7.2 1.3 14.4 2 20.2 3.3 6.5.7 11.8 1.3 16.3 2 9.1 1.3 14.4 1.3 14.4 1.3s-3.9-3.9-11.1-9.1c-4-3.8-8.6-7-14.5-10.3zM94 1449.7v-42.4h18.3c7.8 0 11.8 3.3 11.8 9.8 0 5.2-3.9 9.8-11.8 12.4l14.4 19.6h-7.2l-13.7-18.9v-3.3c7.8-1.3 11.8-4.6 11.8-9.1 0-3.9-2-5.9-6.5-5.9H99.2v37.9H94v-.1zm66-42.4v4.6h-22.2v14.4h20.9v4.6h-20.9v15h22.9v4.6h-28.1v-43.1H160zm9.7 42.4h-5.9l17.6-42.4h5.9l18.3 42.4h-5.9l-5.2-13.1h-13.7l1.3-4.6h10.4l-7.8-18.9-15 36.6zm47.7-42.4v37.9h22.2v4.6h-27.4v-42.4h5.2zm70.5 0v4.6h-22.2v14.4h21.5v4.6h-20.9v15h22.9v4.6h-28.1v-43.1h26.8zm8.5 40.5v-5.2c4.6 1.3 9.1 2.6 14.4 2.6 7.2 0 11.1-2.6 11.1-7.8 0-4.6-2.6-6.5-7.8-6.5h-5.2c-9.1 0-13.1-3.9-13.1-11.8s5.9-11.8 17-11.8c5.2 0 9.8.7 13.7 2v5.2c-3.9-1.3-8.5-2.6-13.7-2.6-7.8 0-11.8 2.6-11.8 7.8 0 4.6 2.6 6.5 7.8 6.5h4.6c9.1 0 13.7 3.9 13.7 11.8 0 8.5-5.2 12.4-16.3 12.4-5.3-.7-10.5-1.3-14.4-2.6zm66.6-40.5v4.6h-13.1v37.9h-5.2v-37.9h-13.1v-4.6H363zm3.3 42.4h-5.9l18.3-42.4h5.9l18.3 42.4H397l-5.2-13.1H378l1.3-4.6h10.4l-7.8-18.9-15.6 36.6zm65.9-42.4v4.6h-13.1v37.9h-5.2v-37.9h-13.1v-4.6h31.4zm34.6 0v4.6h-22.2v14.4h20.9v4.6h-20.9v15h22.9v4.6h-28.1v-43.1h27.4zM75.7 1468l3.3 6.5 3.3-6.5h2.6l-4.6 8.5v4.6h-2.6v-4.6l-4.6-8.5h2.6zm22.9 13.1c-.7 0-2 0-2.6-.7-.7-.7-1.3-.7-2-1.3-.7-.7-.7-1.3-1.3-2 0-.7-.7-1.3-.7-2.6 0-.7 0-2 .7-2.6 0-.7.7-1.3 1.3-2 .7-.7 1.3-1.3 2-1.3.7-.7 1.3-.7 2.6-.7.7 0 2 0 2.6.7.7.7 1.3.7 2 1.3.7.7.7 1.3 1.3 2 0 .7.7 1.3.7 2.6 0 .7 0 2-.7 2.6 0 .7-.7 1.3-1.3 2-.7.7-1.3 1.3-2 1.3-1.3 0-2 .7-2.6.7zm-3.9-6.6v1.3c0 .7.7 1.3.7 1.3 0 .7.7.7 1.3.7.7 0 .7.7 1.3.7.7 0 1.3 0 1.3-.7.7 0 .7-.7 1.3-1.3 0-.7.7-.7.7-1.3v-2.6c0-.7-.7-1.3-.7-1.3 0-.7-.7-.7-1.3-.7-.7 0-.7-.7-1.3-.7s-1.3 0-1.3.7c-.7 0-.7.7-1.3 1.3 0 .7-.7.7-.7 1.3v1.3zm24.8 4c.7 0 1.3 0 1.3-.7.7 0 .7-.7 1.3-.7 0-.7.7-.7.7-1.3v-7.8h2.6v9.1c0 .7-.7 1.3-1.3 2-.7.7-1.3 1.3-2 1.3-.7.7-1.3.7-2.6.7s-2 0-2.6-.7c-.7-.7-1.3-.7-2-1.3-.7-.7-.7-1.3-.7-2v-9.1h2.6v7.8c0 .7 0 .7.7 1.3 0 .7.7.7.7.7 0 .7.6.7 1.3.7zm15 2.6V1468h5.9c.7 0 1.3 0 2 .7.7 0 .7.7 1.3 1.3.7.7.7.7.7 1.3v1.3c0 .7 0 1.3-.7 2.6-.7.7-1.3 1.3-2 1.3l3.3 4.6h-2.6l-2.6-4.6h-2.6v4.6h-2.7zm2.6-7.2h4s.7 0 .7-.7c0 0 0-.7.7-.7v-1.4s0-.7-.7-.7l-.7-.7h-4v4.2zm37.9-3.9h-3.9v10.4h-2.6V1470h-3.9v-2h11.1v2h-.7zm6.5 11.1l5.2-13.1h2l5.2 13.1h-2.6l-1.3-3.3h-4.6l-1.3 3.3h-2.6zm6.5-10.5l-2 5.2h3.3l-1.3-5.2zm23.5 8.5c-1.3 1.3-2 1.3-3.3 1.3-.7 0-1.3 0-2.6-.7-.7-.7-1.3-.7-2-1.3-.7-.7-.7-1.3-1.3-2 0-.7-.7-2-.7-2.6 0-.7 0-2 .7-2.6 0-.7.7-1.3 1.3-2 .7-.7 1.3-1.3 2-1.3.7-.7 1.3-.7 2.6-.7s2 0 3.3.7l2 2-2 1.3c0-.7-.7-1.3-1.3-1.3-.7-.7-1.3-.7-2-.7s-1.3 0-1.3.7c-.7 0-.7.7-1.3.7 0 .7-.7.7-.7 1.3v4c0 .7.7 1.3.7 1.3.7.7.7.7 1.3.7.7 0 .7.7 1.3.7 1.3 0 2-.7 3.3-2v-.7h-2.6v-2h4.6v6.5h-2v-1.3zm11.1 2V1468h2.6v10.4h6.5v2h-9.1v.7zm18.3 0V1468h2.6v13.1h-2.6zm15-8.5v8.5h-2.6V1468h2l6.5 8.5v-8.5h2.6v13.1h-2l-6.5-8.5zm28.1 5.9v2h-9.1v-13.1h9.1v2h-6.5v3.3h5.2v2h-5.2v3.3h6.5v.5zm28.7-7.2s-.6 0 0 0c-.7-.7-.7-.7-1.3-.7 0 0-.7 0-1.3-.7h-1.3c-.6 0-1.3 0-1.3.7-.7 0-.7.7-.7 1.3v.7s0 .7.7.7c0 0 .7 0 .7.7.7 0 .7 0 1.3.7.7 0 1.3.7 2 .7s.7.7 1.3.7c.7 0 .7.7.7 1.3v1.3c0 .7 0 1.3-.7 2 0 .7-.7.7-1.3 1.3-.7 0-.7.7-1.3.7h-2c-.7 0-2 0-2.6-.7-.7 0-2-.7-2.6-1.3l1.3-2 .7.7s.7.7 1.3.7c.7 0 .7 0 1.3.7h1.3c1.3 0 2-.7 2-1.3v-.7l-.7-.7s-.7 0-1.3-.7c-.7 0-.7 0-1.3-.7-.7 0-1.3-.7-1.3-.7-.7 0-.7-.7-1.3-.7l-.7-.7v-1.3c0-.7 0-1.3.7-2 0-.7.7-.7 1.3-1.3.7-.7.7-.7 1.3-.7h2c.7 0 2 0 2.6.7.7 0 1.3.7 2 1.3h-1.5zm10.5 9.8V1468h5.2c.7 0 1.3 0 2 .7.7 0 .7.7 1.3 1.3.7.7.7.7.7 1.3v2.6c0 .7-.7 1.3-.7 1.3-.7.7-.7.7-1.3.7-.7 0-1.3.7-2 .7h-3.3v4.6h-1.9zm2.6-7.2h2.6c.7 0 .7 0 1.3-.7 0-.7.7-.7.7-1.3v-.7s0-.7-.7-.7c0 0-.7 0-.7-.7h-3.3l.1 4.1zm14.4 7.2l5.2-13.1h2l5.2 13.1H350l-1.3-3.3h-4.6l-1.3 3.3h-2.6zm5.8-10.5l-2 5.2h3.9l-1.9-5.2zm13.7 3.3c0-.7 0-1.3.7-2.6 0-.7.7-1.3 1.3-2s1.3-1.3 2-1.3c.7-.7 2-.7 2.6-.7 1.3 0 2 0 3.3.7l2 2-2 1.3c0-.7-.7-.7-.7-.7l-.7-.7h-1.4c-.7 0-1.3 0-1.3.7-.7 0-.7.7-1.3 1.3s-.7.7-.7 1.3v3.3c0 .7.7 1.3.7 1.3 0 .7.7.7 1.3.7.7 0 .7.7 1.3.7h.7s.7 0 .7-.7l.7-.7.7-.7 2 1.3c0 .7-.7.7-.7 1.3-.7.7-.7.7-1.3.7s-.7.7-1.3.7H367c-.7 0-2 0-2.6-.7-.7-.7-1.3-.7-2-1.3-.7-.7-.7-1.3-1.3-2-.7-1.3-1.4-1.9-1.4-3.2zm29.4 4.6v2H380v-13.1h9.1v2h-6.5v3.3h5.2v2h-5.2v3.3h6.5v.5zm32-10.5v13.1h-2.6v-5.2h-5.9v5.2H410V1468h2.6v5.2h5.9v-5.2h2.6zm19.6 10.5v2h-9.1v-13.1h9.1v2h-6.5v3.3h5.2v2h-5.2v3.3h6.5v.5zm9.1 2.6V1468h5.9c.7 0 1.3 0 2 .7.7 0 .7.7 1.3 1.3.7.7.7.7.7 1.3v1.3c0 .7 0 1.3-.7 2.6-.7.7-1.3 1.3-2 1.3l3.3 4.6h-2.6l-2.6-4.6h-2.6v4.6h-2.7zm2.6-7.2h4s.7 0 .7-.7c0 0 0-.7.7-.7v-1.4s0-.7-.7-.7l-.7-.7h-4v4.2zm26.2 4.6v2h-9.1v-13.1h9.1v2H472v3.3h5.2v2H472v3.3h6.5v.5zM593.5 1248c-3.9 2.6-10.4 5.9-18.3 9.8-3.9 2-8.5 3.9-13.1 5.9-2.6 1.3-4.6 2-7.2 3.3-2.6 1.3-5.2 2-7.8 3.3-11.1 3.9-23.5 7.2-37.2 9.8-11.8 2-24.2 3.3-37.2 3.9v-185.4l-26.8-19.6-30-22.2-87.5-64-67.2 48.3-65.9-48.3-145 105.7v167.8c-2 1.3-3.9 2.6-5.2 3.9-2.6 2.6-5.2 4.6-7.8 6.5-9.8 9.1-17.6 17.6-22.9 25.5s-9.1 14.4-11.1 18.3c-1.3 2-2 3.9-2.6 5.2-.7 1.3-.7 2-.7 2l1.3-1.3c1.3-.7 2.6-2 4.6-3.3s4.6-2.6 7.2-4.6c1.3-.7 3.3-2 4.6-2.6 2-1.3 3.3-2 5.2-3.3 7.8-3.9 17-8.5 28.1-13.1 2.6-.7 5.2-2 8.5-3.3 3.3-.7 5.9-2 9.1-2.6 5.9-2 12.4-3.3 19.6-4.6 13.7-2.6 28.1-3.9 43.7-4.6 15.7-.7 32 .7 49.6 2.6 17 2 34.6 5.2 52.9 9.1 17.6 3.9 35.9 9.1 54.2 15 4.6 1.3 9.1 2.6 13.7 4.6l6.5 2 3.9 1.3 3.3 1.3 7.2 2.6 3.9 1.3 3.9 1.3c5.2 1.3 11.1 3.3 16.3 4.6 20.9 5.2 42.4 7.8 63.3 9.1 20.9.7 41.1-1.3 60.1-5.2 18.9-3.9 35.9-10.4 50.9-17.6 7.2-3.9 14.4-7.8 20.9-11.8 3.3-2 5.9-3.9 9.1-6.5 2.6-2 5.2-3.9 7.8-6.5 5.2-4.6 9.8-8.5 13.7-12.4 3.9-3.9 7.2-7.8 10.4-11.8 5.9-7.2 9.8-13.1 12.4-17 1.3-2 2-3.9 2.6-4.6.7-1.3.7-2 .7-2s-1.8 1.6-5.7 4.2zm-291.2-131.2v127.3c-18.3-5.9-36.6-10.4-54.8-13.1-20.9-3.3-42.4-5.2-62.7-5.2-6.5 0-13.7.7-20.2.7L286 1105l16.3 11.8zm-107.1-78.4l35.3 25.5 26.1 18.9-158.7 158c-3.9 1.3-7.2 2.6-10.4 4.6v-128l107.7-79zm221.3 240.3c-17-3.3-33.9-7.2-50.9-13.1-4.6-1.3-8.5-2.6-12.4-4.6l-3.3-1.3-3.3-1.3-6.5-2.6v-158.7l-26.8-19.6-20.2-14.4 35.3-25.5 60.7 44.4 30 22.2 16.3 11.8v164.5c-6.5.1-13-.5-18.9-1.8z"/><path d="M297.7 1350.5c-2.6-2-5.2-3.9-8.5-5.2-3.3-2-6.5-3.3-9.8-5.2-3.3-2-7.2-3.9-11.1-5.2-3.9-2-7.8-3.9-11.8-5.2-3.9-2-8.5-3.3-13.1-5.2-4.6-1.3-9.1-3.3-13.7-4.6-9.1-2.6-19.6-5.2-29.4-7.2-10.4-2-20.9-3.3-31.3-4.6-5.2-.7-10.4-.7-15.7-.7h-15.6c-2.6 0-5.2 0-7.8.7-2.6 0-5.2.7-7.8.7-5.2.7-10.4 1.3-15 2-9.8 1.3-19.6 3.3-28.1 5.9-9.1 2.6-17 5.2-24.2 8.5-15 5.9-26.1 13.1-33.9 18.3-7.8 5.2-11.1 9.1-11.1 9.1s1.3 0 3.9-.7c2.6 0 5.9-.7 10.4-1.3 4.6-.7 9.8-.7 15.7-1.3 5.9-.7 13.1-.7 20.2-1.3 7.2 0 15-.7 23.5-.7h26.1c4.6 0 9.1 0 13.7.7 4.6 0 9.1.7 13.7.7s9.1.7 14.4.7c4.6.7 9.8.7 14.4 1.3 9.8.7 18.9 2 28.7 2.6 9.1 1.3 18.9 2.6 28.1 3.3 4.6.7 9.1 1.3 13.1 2 4.6.7 8.5 1.3 13.1 2 3.9.7 8.5 1.3 12.4 2 3.9.7 7.8 1.3 11.8 2 7.2 1.3 14.4 2 20.2 3.3 6.5.7 11.8 1.3 16.3 2 9.1 1.3 14.4 1.3 14.4 1.3s-3.9-3.9-11.1-9.1c-4.6-5.1-9.2-8.3-15.1-11.6z"/></g></svg>