<svg xmlns="http://www.w3.org/2000/svg" viewBox="0 73 600 527"><g fill="#5A5A5A"><path d="M-876.5 800.8h2370.4V1986H-876.5zM74.1 535v-53.5h23c9.9 0 14.8 4.1 14.8 12.3 0 6.6-4.9 12.3-14.8 15.6l18.1 24.7h-9.1l-17.3-23.9v-4.1c9.9-1.6 14.8-5.8 14.8-11.5 0-4.9-2.5-7.4-8.2-7.4h-14V535h-7.3zm83.1-52.7v5.8h-28v18.1h27.2v5.8H130v18.9h28.8v4.1h-35.4v-53.5h33.7v.8zm13.2 52.7H163l22.2-53.5h7.4l23 53.5h-7.4l-6.6-16.5h-17.3l1.6-5.8h13.2l-9.9-23.9-18.8 46.2zm59.2-52.7V530h28v4.9H223v-53.5h6.6v.9zm89.7 0v5.8h-28v18.1h26.3v5.8h-26.3v18.9h28.8v4.1h-35.4v-53.5h34.6v.8zm9.9 51v-6.6c5.8 1.6 11.5 3.3 18.1 3.3 9.1 0 14-3.3 14-9.9 0-5.8-3.3-8.2-9.9-8.2h-6.6c-10.7 0-16.5-4.9-16.5-14.8s7.4-14.8 21.4-14.8c6.6 0 12.3.8 17.3 2.5v6.6c-4.9-1.6-10.7-3.3-17.3-3.3-9.9 0-14.8 3.3-14.8 9.9 0 5.8 3.3 8.2 9.9 8.2h6.6c11.5 0 17.3 4.9 17.3 14.8 0 10.7-6.6 15.6-20.6 15.6-7.4-.8-13.1-1.6-18.9-3.3zm84.8-51v5.8h-16.5V535h-6.6v-47.7h-16.5v-5.8H414v.8zm4.1 52.7h-7.4l22.2-53.5h7.4l23 53.5H456l-6.6-16.5h-17.3l1.6-5.8h13.2l-9.9-23.9-18.9 46.2zm83.1-52.7v5.8h-16.5V535h-7.4v-47.7h-16.5v-5.8h40.3v.8zm42.8 0v5.8h-28v18.1h27.2v5.8h-26.3v18.9h28.8v4.1h-35.4v-53.5H544v.8zM51.9 558l4.1 8.2 4.1-8.2h3.3l-5.8 10.7v5.8h-3.3v-5.8L48.6 558h3.3zm27.9 16.5c-.8 0-2.5 0-3.3-.8-.8-.8-1.6-.8-2.5-1.6-.8-.8-.8-1.6-1.6-2.5 0-.8-.8-1.6-.8-3.3 0-.8 0-2.5.8-3.3 0-.8.8-1.6 1.6-2.5.8-.8 1.6-.8 2.5-1.6.8-.8 1.6-.8 3.3-.8.8 0 2.5 0 3.3.8.8.8 1.6.8 2.5 1.6.8.8.8 1.6 1.6 2.5 0 .8.8 1.6.8 3.3 0 .8 0 2.5-.8 3.3 0 .8-.8 1.6-1.6 2.5-.8.8-1.6 1.6-2.5 1.6-.8.8-1.6.8-3.3.8zm-4.1-8.2v1.6c0 .8.8 1.6.8 1.6 0 .8.8.8 1.6.8s.8.8 1.6.8 1.6 0 1.6-.8c.8 0 .8-.8 1.6-1.6 0-.8.8-.8.8-1.6v-3.2c0-.8-.8-1.6-.8-1.6 0-.8-.8-.8-1.6-.8s-.8-.8-1.6-.8-1.6 0-1.6.8c-.8 0-.8.8-1.6 1.6 0 .8-.8.8-.8 1.6v1.6zm30.5 5.7c.8 0 1.6 0 1.6-.8.8 0 .8-.8 1.6-.8 0-.8.8-.8.8-1.6V559h3.3v11.5c0 .8-.8 1.6-1.6 2.5-.8.8-1.6 1.6-2.5 1.6-.8.8-1.6.8-3.3.8s-2.5 0-3.3-.8c-.8-.8-1.6-.8-2.5-1.6-.8-.8-.8-1.6-1.6-2.5V559h3.3v9.8c0 .8 0 .8.8 1.6 0 .8.8.8 1.6.8.9.8.9.8 1.8.8zm19.7 2.5V558h7.4c.8 0 1.6 0 2.5.8.8 0 .8.8 1.6 1.6s.8.8.8 1.6v1.6c0 .8 0 1.6-.8 3.3-.8.8-1.6 1.6-2.5 1.6l4.1 5.8h-3.3l-3.3-5.8h-3.3v5.8l-3.2.2zm3.3-8.2h4.9s.8 0 .8-.8c0 0 0-.8.8-.8V563s0-.8-.8-.8l-.8-.8h-4.9v4.9zm47.8-5h-5v13.2h-3.3v-13.2h-4.9v-2.5h14v2.5h-.8zm8.2 13.2l6.6-16.5h2.5l6.6 16.5h-3.3l-1.6-4.1h-5.8l-1.6 4.1h-3.4zm7.4-12.4l-2.5 6.6h4.9l-2.4-6.6zm29.6 10.7c-1.6 1.6-2.5 1.6-4.1 1.6-.8 0-1.6 0-3.3-.8-.8-.8-1.6-.8-2.5-1.6-.8-.8-.8-1.6-1.6-2.5 0-.8-.8-2.5-.8-3.3 0-.8 0-2.5.8-3.3 0-.8.8-1.6 1.6-2.5.8-.8 1.6-1.6 2.5-1.6.8-.8 1.6-.8 3.3-.8s2.5 0 4.1.8l2.5 2.5-2.5 2.5c0-.8-.8-1.6-1.6-1.6-.8-.8-1.6-.8-2.5-.8-.8 0-1.6 0-1.6.8-.8 0-.8.8-1.6.8 0 .8-.8.8-.8 1.6v5c0 .8.8 1.6.8 1.6.8.8.8.8 1.6.8s.8.8 1.6.8c1.6 0 2.5-.8 4.1-2.5v-.8h-3.3V567h5.8v8.2h-2.5v-2.4zm14.8 1.7V558h3.3v13.2h8.2v2.5H237v.8zm23.1 0V558h3.3v16.5h-3.3zm18.9-9.9v10.7h-3.3v-16.5h2.5l8.2 10.7v-10.7h3.3v16.5h-2.5l-8.2-10.7zm34.6 7.4v2.5h-11.5V558h11.5v2.5h-8.2v4.1h7.4v3.3h-6.6v4.1h7.4zm36.2-9c0-.9 0-.9 0 0-.8-.8-.8-.8-1.6-.8 0 0-.8 0-1.6-.8H345c-.8 0-1.6 0-1.6.8-.8 0-.8.8-.8 1.6v.8s0 .8.8.8c0 0 .8 0 .8.8.8 0 .8 0 1.6.8.8 0 1.6.8 2.5.8s.8.8 1.6.8.8.8.8 1.6v1.6c0 .8 0 1.6-.8 2.5 0 .8-.8.8-1.6 1.6-.8 0-.8.8-1.6.8h-2.5c-.9 0-2.5 0-3.3-.8-.8 0-2.5-.8-3.3-1.6l1.6-2.5.8.8s.8.8 1.6.8.8 0 1.6.8h1.6c1.6 0 2.5-.8 2.5-1.6v-.6l-.8-.8s-.8 0-1.6-.8c-.8 0-.8 0-1.6-.8-.8 0-1.6-.8-1.6-.8-.8 0-.8-.8-1.6-.8l-.8-.8v-1.6c0-.8 0-1.6.8-2.5 0-.8.8-.8 1.6-1.6s.8-.8 1.6-.8h2.5c.8 0 2.5 0 3.3.8.8 0 1.6.8 2.5 1.6l-1.8-.1zm14 11.5V558h6.6c.8 0 1.6 0 2.5.8.8 0 .8.8 1.6 1.6s.8.8.8 1.6v3.2c0 .8-.8.8-.8 1.6-.8.8-.8.8-1.6.8s-1.6.8-2.5.8h-4.1v5.8l-2.5.3zm3.3-8.2h3.3c.8 0 .8 0 1.6-.8 0-.8.8-.8.8-1.6v-.8s0-.8-.8-.8c0 0-.8 0-.8-.8h-4.1v4.8zm17.3 8.2L391 558h2.5l6.6 16.5h-3.3l-1.6-4.1h-5.8l-1.6 4.1h-3.4zm8.2-12.4l-2.5 6.6h4.9l-2.4-6.6zm17.3 4.2c0-.8 0-1.6.8-3.3 0-.8.8-1.6 1.6-2.5.8-.8 1.6-1.6 2.5-1.6.8-.8 2.5-.8 3.3-.8 1.6 0 2.5 0 4.1.8l2.5 2.5-2.5 1.6c0-.8-.8-.8-.8-.8l-.8-.8H419c-.8 0-1.6 0-1.6.8-.8 0-.8.8-1.6 1.6 0 .8-.8.8-.8 1.6v4.1c0 .8.8 1.6.8 1.6 0 .8.8.8 1.6.8s.8.8 1.6.8h.8s.8 0 .8-.8l.8-.8.8-.8 2.5 1.6c0 .8-.8.8-.8 1.6-.8.8-.8.8-1.6.8s-.8.8-1.6.8h-1.6c-.8 0-2.5 0-3.3-.8-.8-.8-1.6-.8-2.5-1.6-.8-.8-.8-1.6-1.6-2.5-1.8-1.5-1.8-3.1-1.8-3.9zm37 5.7v2.5h-11.5V558h11.5v2.5h-8.2v4.1h6.6v3.3h-6.6v4.1h8.2zm40.3-14v16.5H484v-6.6h-7.4v6.6h-3.3V558h3.3v6.6h7.4V558h3.2zm23.9 14v2.5h-11.5V558h11.5v2.5h-8.2v4.1h7.4v3.3h-6.6v4.1h7.4zm11.5 2.5V558h7.4c.8 0 1.6 0 2.5.8.8 0 .8.8 1.6 1.6s.8.8.8 1.6v1.6c0 .8 0 1.6-.8 3.3-.8.8-1.6 1.6-2.5 1.6l4.1 5.8h-3.3l-3.3-5.8h-3.3v5.8l-3.2.2zm3.3-8.2h4.9s.8 0 .8-.8c0 0 0-.8.8-.8V563s0-.8-.8-.8l-.8-.8h-4.9v4.9zm32.9 5.7v2.5h-11.5V558h11.5v2.5h-8.2v4.1h6.6v3.3h-6.6v4.1h8.2zM377.3 117.1l-77.1 56.2-77.7-56.2-52.8 38.2V106h-43v81.2l-79.8 58.3v197.1h505.3V245.5L377.3 117.1zM127.4 399.6H90V267.7l36.8-27.1v159h.6zm228.4 0H169.7V209.4l52.8-38.2 132.6 97.2v131.2h.7zm154.1 0h-111V245.5l-61.8-45.1 40.3-29.8L510 267.8v131.8z"/><path d="M184.4 230.5h129.2v51H184.4zM74.1 1626.3v-53.5h23c9.9 0 14.8 4.1 14.8 12.3 0 6.6-4.9 12.3-14.8 15.6l18.1 24.7h-9.1l-17.3-23.9v-4.1c9.9-1.6 14.8-5.8 14.8-11.5 0-4.9-2.5-7.4-8.2-7.4h-14v47.7l-7.3.1zm83.1-52.6v5.8h-28v18.1h27.2v5.8H130v18.9h28.8v5.8h-35.4v-53.5h33.7v-.9zm13.2 52.6H163l22.2-53.5h7.4l23 53.5h-7.4l-6.6-16.5h-17.3l1.6-5.8h13.2l-9.9-23.9-18.8 46.2zm59.2-52.6v47.7h28v5.8H223v-53.5h6.6zm89.7 0v5.8h-28v18.1h26.3v5.8h-26.3v18.9h28.8v5.8h-35.4v-53.5h34.6v-.9zm9.9 51v-6.6c5.8 1.6 11.5 3.3 18.1 3.3 9.1 0 14-3.3 14-9.9 0-5.8-3.3-8.2-9.9-8.2h-6.6c-10.7 0-16.5-4.9-16.5-14.8s7.4-14.8 21.4-14.8c6.6 0 12.3.8 17.3 2.5v6.6c-4.9-1.6-10.7-3.3-17.3-3.3-9.9 0-14.8 3.3-14.8 9.9 0 5.8 3.3 8.2 9.9 8.2h6.6c11.5 0 17.3 4.9 17.3 14.8 0 10.7-6.6 15.6-20.6 15.6-7.4-.8-13.1-1.7-18.9-3.3zm84.8-51v5.8h-16.5v47.7h-6.6v-47.7h-16.5v-5.8H414zm4.1 52.6h-7.4l22.2-53.5h7.4l23 53.5H456l-6.6-16.5h-17.3l1.6-5.8h13.2l-9.9-23.9-18.9 46.2zm83.1-52.6v5.8h-16.5v47.7h-7.4v-47.7h-16.5v-5.8h40.4zm42.8 0v5.8h-28v18.1h27.2v5.8h-26.3v18.9h28.8v5.8h-35.4v-53.5H544v-.9zm-492.1 75.7l4.1 8.2 4.1-8.2h3.3l-5.8 10.7v5.8h-3.3v-5.8l-5.8-10.7h3.4zm27.9 16.4c-.8 0-2.5 0-3.3-.8-.8-.8-1.6-.8-2.5-1.6-.8-.8-.8-1.6-1.6-2.5 0-.8-.8-1.6-.8-3.3 0-.8 0-2.5.8-3.3 0-.8.8-1.6 1.6-2.5s1.6-1.6 2.5-1.6c.8-.8 1.6-.8 3.3-.8.8 0 2.5 0 3.3.8.8.8 1.6.8 2.5 1.6.8.8.8 1.6 1.6 2.5 0 .8.8 1.6.8 3.3 0 .8 0 2.5-.8 3.3 0 .8-.8 1.6-1.6 2.5-.8.8-1.6 1.6-2.5 1.6-.8.8-1.6.8-3.3.8zm-4.1-8.2v1.6c0 .8.8 1.6.8 1.6 0 .8.8.8 1.6.8s.8.8 1.6.8 1.6 0 1.6-.8c.8 0 .8-.8 1.6-1.6 0-.8.8-.8.8-1.6v-3.2c0-.8-.8-1.6-.8-1.6 0-.8-.8-.8-1.6-.8s-.8-.8-1.6-.8-1.6 0-1.6.8c-.8 0-.8.8-1.6 1.6 0 .8-.8.8-.8 1.6v1.6zm30.5 5.8c.8 0 1.6 0 1.6-.8.8 0 .8-.8 1.6-.8 0-.8.8-.8.8-1.6v-9.8h3.3v11.5c0 .8-.8 1.6-1.6 2.5-.8.8-1.6 1.6-2.5 1.6-.8.8-1.6.8-3.3.8s-2.5 0-3.3-.8-1.6-.8-2.5-1.6c-.8-.8-.8-1.6-1.6-2.5v-11.5h3.3v9.8c0 .8 0 .8.8 1.6 0 .8.8.8 1.6.8.9.8.9.8 1.8.8zm19.7 2.4v-16.5h7.4c.8 0 1.6 0 2.5.8.8 0 .8.8 1.6 1.6s.8.8.8 1.6v1.6c0 .8 0 1.6-.8 3.3-.8.8-1.6 1.6-2.5 1.6l4.1 5.8h-3.3l-3.3-5.8h-3.3v5.8l-3.2.2zm3.3-8.2h4.9s.8 0 .8-.8c0 0 0-.8.8-.8v-1.6s0-.8-.8-.8l-.8-.8h-4.9v4.8zm47.8-4.9h-5v13.2h-3.3v-13.2h-4.9v-2.5h14v2.5h-.8zm8.2 13.1l6.6-16.5h2.5l6.6 16.5h-3.3l-1.6-4.1h-5.8l-1.6 4.1h-3.4zm7.4-12.3l-2.5 6.6h4.9l-2.4-6.6zm29.6 10.7c-1.6 1.6-2.5 1.6-4.1 1.6-.8 0-1.6 0-3.3-.8-.8-.8-1.6-.8-2.5-1.6-.8-.8-.8-1.6-1.6-2.5 0-.8-.8-2.5-.8-3.3s0-2.5.8-3.3c0-.8.8-1.6 1.6-2.5s1.6-1.6 2.5-1.6c.8-.8 1.6-.8 3.3-.8s2.5 0 4.1.8l2.5 2.5-2.5 1.6c0-.8-.8-1.6-1.6-1.6-.8-.8-1.6-.8-2.5-.8-.8 0-1.6 0-1.6.8-.8 0-.8.8-1.6.8 0 .8-.8.8-.8 1.6v5c0 .9.8 1.6.8 1.6.8.8.8.8 1.6.8s.8.8 1.6.8c1.6 0 2.5-.8 4.1-2.5v-.8h-3.3v-2.5h5.8v8.2h-2.5v-1.5zm14.8 1.6v-16.5h3.3v13.2h8.2v2.5H237v.8zm23.1 0v-16.5h3.3v16.5h-3.3zm18.9-9.8v10.7h-3.3v-16.5h2.5l8.2 10.7v-10.7h3.3v16.5h-2.5L279 1656zm34.6 7.4v2.5h-11.5v-16.5h11.5v2.5h-8.2v4.1h7.4v2.5h-6.6v4.1h7.4v.8zm36.2-9.1c0-.8 0-.8 0 0-.8-.8-.8-.8-1.6-.8 0 0-.8 0-1.6-.8H345c-.8 0-1.6 0-1.6.8-.8 0-.8.8-.8 1.6v.8s0 .8.8.8c0 0 .8 0 .8.8.8 0 .8 0 1.6.8.8 0 1.6.8 2.5.8s.8.8 1.6.8.8.8.8 1.6v1.6c0 .8 0 1.6-.8 2.5 0 .8-.8.8-1.6 1.6-.8 0-.8.8-1.6.8h-2.5c-.9 0-2.5 0-3.3-.8-.8 0-2.5-.8-3.3-1.6l1.6-2.5.8.8s.8.8 1.6.8.8 0 1.6.8h1.6c1.6 0 2.5-.8 2.5-1.6v-.8l-.8-.8s-.8 0-1.6-.8c-.8 0-.8 0-1.6-.8-.8 0-1.6-.8-1.6-.8-.8 0-.8-.8-1.6-.8l-.8-.8v-1.6c0-.8 0-1.6.8-2.5 0-.8.8-.8 1.6-1.6s.8-.8 1.6-.8h2.5c.8 0 2.5 0 3.3.8.8 0 1.6.8 2.5 1.6h-1.8zm14 11.5v-16.5h6.6c.8 0 1.6 0 2.5.8.8 0 .8.8 1.6 1.6s.8.8.8 1.6v3.2c0 .8-.8.8-.8 1.6-.8.8-.8.8-1.6.8s-1.6.8-2.5.8h-4.1v5.8h-2.5zm3.3-8.2h3.3c.8 0 .8 0 1.6-.8 0-.8.8-.8.8-1.6v-.8s0-.8-.8-.8c0 0-.8 0-.8-.8h-4.1v4.8zm17.3 8.2l6.6-16.5h2.5l6.6 16.5h-3.3l-1.6-4.1h-5.8l-1.6 4.1h-3.4zm8.2-12.3l-2.5 6.6h4.9l-2.4-6.6zm17.3 4.1c0-.8 0-1.6.8-3.3 0-.8.8-1.6 1.6-2.5.8-.8 1.6-1.6 2.5-1.6.8-.8 2.5-.8 3.3-.8 1.6 0 2.5 0 4.1.8l2.5 2.5-2.5 1.6c0-.8-.8-.8-.8-.8l-.8-.8H419c-.8 0-1.6 0-1.6.8-.8 0-.8.8-1.6 1.6 0 .8-.8.8-.8 1.6v4.1c0 .8.8 1.6.8 1.6 0 .8.8.8 1.6.8s.8.8 1.6.8h.8s.8 0 .8-.8l.8-.8.8-.8 2.5 1.6c0 .8-.8.8-.8 1.6-.8.8-.8.8-1.6.8s-.8.8-1.6.8h-1.6c-.8 0-2.5 0-3.3-.8-.8-.8-1.6-.8-2.5-1.6-.8-.8-.8-1.6-1.6-2.5-1.8-1.4-1.8-3.1-1.8-3.9zm37 5.8v2.5h-11.5v-16.5h11.5v2.5h-8.2v4.1h6.6v2.5h-6.6v4.1h8.2v.8zm40.3-14v16.5H484v-6.6h-7.4v6.6h-3.3v-16.5h3.3v6.6h7.4v-6.6h3.2zm23.9 14v2.5h-11.5v-16.5h11.5v2.5h-8.2v4.1h7.4v2.5h-6.6v4.1h7.4v.8zm11.5 2.4v-16.5h7.4c.8 0 1.6 0 2.5.8.8 0 .8.8 1.6 1.6s.8.8.8 1.6v1.6c0 .8 0 1.6-.8 3.3-.8.8-1.6 1.6-2.5 1.6l4.1 5.8h-3.3l-3.3-5.8h-3.3v5.8l-3.2.2zm3.3-8.2h4.9s.8 0 .8-.8c0 0 0-.8.8-.8v-1.6s0-.8-.8-.8l-.8-.8h-4.9v4.8zm32.9 5.8v2.5h-11.5v-16.5h11.5v2.5h-8.2v4.1h6.6v2.5h-6.6v4.1h8.2v.8zm-167-534.2l-91.4 66.7-91.4-66.7-62.6 45.3V1116h-51v96.3L0 1281.5v233.7h599.1v-233.7l-207.3-152.3zm-296.3 335H51v-156.4l43.6-32.1v188.5h.9zm270.8 0H145.7v-225.5l62.6-45.3 157.2 115.2v155.6h.8zm182.7 0H417.3v-181.9l-73.3-53.5 47.7-35.4L549 1308.6v155.6z"/><path d="M184.4 1321.8h129.2v51H184.4z"/></g></svg>