<svg xmlns="http://www.w3.org/2000/svg" viewBox="0 0 600 600"><path fill="#5A5A5A" d="M-528.9 685.1h1650.4v825.2H-528.9zm667.6-212v-37.2h16c6.9 0 10.3 2.9 10.3 8.6 0 4.6-3.4 8.6-10.3 10.9l12.6 17.2H161L149 456v-3c6.9-1.1 10.3-4 10.3-8 0-3.4-1.7-5.2-5.7-5.2h-10.3V473h-4.6zm57.9-36.7v4h-18.9V453H196v4h-18.3v13.2h20.1v4h-24.6V437h23.5v-.6zm9.1 36.7h-5.2l15.5-37.2h5.2l16 37.2H232l-4.6-11.5h-12l1.1-4h9.2l-6.9-16.6-13.1 32.1zm41.3-36.7v33.2h19.5v4h-24.1v-37.2h4.6zm62.5 0v4H290V453h18.3v4H290v13.2h20v4h-24.6V437h24.1v-.6zm6.8 35.5v-4.6c4 1.1 8 2.3 12.6 2.3 6.3 0 9.7-2.3 9.7-6.9 0-4-2.3-5.7-6.9-5.7h-5.2c-7.4 0-11.5-3.4-11.5-10.3s5.2-10.3 14.9-10.3c4.6 0 8.6.6 12 1.7v4.6c-3.4-1.1-7.4-2.3-12-2.3-6.9 0-10.3 2.3-10.3 6.9 0 4 2.3 5.7 6.9 5.7h4.6c8 0 12 3.4 12 10.3 0 7.4-4.6 10.9-14.3 10.9-4.4-.6-8.5-1.1-12.5-2.3zm59.1-35.5v4h-11.5v33.2h-4.6v-33.2h-11.5v-4h27.6zm2.8 36.7H373l15.5-37.2h5.2l16 37.2h-5.2l-4.6-11.5h-12l1.1-4h9.2l-6.9-16.6-13.1 32.1zm57.9-36.7v4h-11.5v33.2H420v-33.2h-11.5v-4h27.6zm29.8 0v4h-19.5V453h18.3v4h-18.3v13.2h20.1v4h-24.6V437H466v-.6zm-342.7 52.7l2.9 5.7 2.9-5.7h2.3l-4 7.4v4H125v-4l-4-7.4h2.2zm19.5 11.5c-.6 0-1.7 0-2.3-.6-.6-.6-1.1-.6-1.7-1.1-.6-.6-.6-1.1-1.1-1.7 0-.6-.6-1.1-.6-2.3 0-.6 0-1.7.6-2.3 0-.6.6-1.1 1.1-1.7.6-.6 1.1-1.1 1.7-1.1.6-.6 1.1-.6 2.3-.6.6 0 1.7 0 2.3.6.6.6 1.1.6 1.7 1.1s.6 1.1 1.1 1.7c0 .6.6 1.1.6 2.3 0 .6 0 1.7-.6 2.3 0 .6-.6 1.1-1.1 1.7-.6.6-1.1 1.1-1.7 1.1-.6.6-1.2.6-2.3.6zm-2.9-5.8v1.1c0 .6.6 1.1.6 1.1 0 .6.6.6 1.1.6.6 0 .6.6 1.1.6.6 0 1.1 0 1.1-.6.6 0 .6-.6 1.1-1.1.6-.6.6-.6.6-1.1v-2.8c0-.6-.6-1.1-.6-1.1 0-.6-.6-.6-1.1-.6s-.6-.6-1.1-.6c-.6 0-1.1 0-1.1.6-.6 0-.6.6-1.1 1.1 0 .6-.6.6-.6 1.1v1.7zm21.2 4.1c.6 0 1.1 0 1.1-.6.6 0 .6-.6 1.1-.6 0-.6.6-.6.6-1.1v-6.8h2.3v8c0 .6-.6 1.1-1.1 1.7-.6.6-1.1 1.1-1.7 1.1-.6.6-1.1.6-2.3.6-1.1 0-1.7 0-2.3-.6s-1.1-.6-1.7-1.1c-.6-.6-.6-1.1-.6-1.7v-8h2.3v6.8c0 .6 0 .6.6 1.1 0 .6.6.6.6.6.6.6.6.6 1.1.6zm13.8 1.7v-11.5h5.2c.6 0 1.1 0 1.7.6.6 0 .6.6 1.1 1.1.6.6.6.6.6 1.1v1.1c0 .6 0 1.1-.6 2.3-.6.6-1.1 1.1-1.7 1.1l2.9 4h-2.3l-2.3-4h-2.3v4l-2.3.2zm2.3-5.8h3.5s.6 0 .6-.6c0 0 0-.6.6-.6v-1.2s0-.6-.6-.6l-.6-.6h-3.5v3.6zm33.2-3.4h-3.4v9.7h-2.3v-9.7h-3.4v-1.7h9.7v1.7h-.6zm5.7 9.2l4.6-11.5h1.7l4.6 11.5h-2.3l-1.1-2.9h-4l-1.1 2.9H216zm5.2-8.6l-1.7 4.6h3.4l-1.7-4.6zm20.6 7.4c-1.1 1.1-1.7 1.1-2.9 1.1-.6 0-1.1 0-2.3-.6-.6-.6-1.1-.6-1.7-1.1-.6-.6-.6-1.1-1.1-1.7 0-.6-.6-1.7-.6-2.3s0-1.7.6-2.3c0-.6.6-1.1 1.1-1.7.6-.6 1.1-1.1 1.7-1.1.6-.6 1.1-.6 2.3-.6 1.1 0 1.7 0 2.9.6l1.7 1.7-1.7 1.1c0-.6-.6-1.1-1.1-1.1-.6-.6-1.1-.6-1.7-.6s-1.1 0-1.1.6c-.6 0-.6.6-1.1.6 0 .6-.6.6-.6 1.1v3.4c0 .6.6 1.1.6 1.1.6.6.6.6 1.1.6.6 0 .6.6 1.1.6 1.1 0 1.7-.6 2.9-1.7v-.6h-2.3v-1.7h4v5.7h-1.7v-1.1zm10.3 1.2v-11.5h2.3v9.2h5.7v1.7h-8v.6zm16.1 0v-11.5h2.3v11.5h-2.3zm13.2-6.9v7.4h-2.3v-11.5h1.7l5.7 7.4v-7.4h2.3v11.5h-1.7l-5.7-7.4zm24 5.2v1.7H298v-11.5h8v1.7h-5.7v3.4h4.6v1.7h-4.6v2.9h5.1zm25.8-6.3c-.5 0-.5-.6 0 0-.6-.6-.6-.6-1.1-.6 0 0-.6 0-1.1-.6h-1.1c-.6 0-1.1 0-1.1.6-.6 0-.6.6-.6 1.1v.6s0 .6.6.6c0 0 .6 0 .6.6.6 0 .6 0 1.1.6.6 0 1.1.6 1.7.6s.6.6 1.1.6.6.6.6 1.1v1.1c0 .5 0 1.1-.6 1.7 0 .6-.6.6-1.1 1.1-.6 0-.6.6-1.1.6h-1.7c-1.1 0-1.7 0-2.3-.6-.6 0-1.7-.6-2.3-1.1l1.1-1.7.6.6s.6.6 1.1.6.6 0 1.1.6h1.1c1.1 0 1.7-.6 1.7-1.1v-.6l-.6-.6s-.6 0-1.1-.6c-.6 0-.6 0-1.1-.6-.6 0-1.1-.6-1.1-.6-.6 0-.6-.6-1.1-.6l-.6-.6v-1.1c0-.5 0-1.1.6-1.7 0-.6.6-.6 1.1-1.1s.6-.6 1.1-.6h1.7c.6 0 1.7 0 2.3.6.6 0 1.1.6 1.7 1.1h-1.2zm9.2 8v-11.5h4.6c.6 0 1.1 0 1.7.6.6 0 .6.6 1.1 1.1.6.6.6.6.6 1.1v2.2c0 .6-.6.6-.6 1.1-.6.6-.6.6-1.1.6-.6 0-1.1.6-1.7.6h-2.9v4l-1.7.2zm2.3-5.8h2.3c.6 0 .6 0 1.1-.6 0-.6.6-.6.6-1.1v-.6s0-.6-.6-.6c0 0-.6 0-.6-.6h-2.8v3.5zm12 5.8l4.6-11.5h1.7l4.6 11.5h-2.3l-1.1-2.9h-4l-1.1 2.9h-2.4zm5.8-8.6l-1.7 4.6h3.4l-1.7-4.6zm12 2.8c0-.6 0-1.1.6-2.3 0-.6.6-1.1 1.1-1.7.6-.6 1.1-1.1 1.7-1.1.6-.6 1.7-.6 2.3-.6 1.1 0 1.7 0 2.9.6l1.7 1.7-1.7 1.1c0-.6-.6-.6-.6-.6l-.6-.6h-1.2c-.6 0-1.1 0-1.1.6-.6 0-.6.6-1.1 1.1 0 .6-.6.6-.6 1.1v2.8c0 .6.6 1.1.6 1.1 0 .6.6.6 1.1.6s.6.6 1.1.6h.6s.6 0 .6-.6l.6-.6.6-.6 1.7 1.1c0 .6-.6.6-.6 1.1-.6.6-.6.6-1.1.6s-1.1.6-1.1.6h-1.1c-.6 0-1.7 0-2.3-.6-.6-.6-1.1-.6-1.7-1.1-.6-.6-.6-1.1-1.1-1.7-1.3-.8-1.3-1.4-1.3-2.6zm25.8 4.1v1.7h-8v-11.5h8v1.7h-5.7v3.4h4.6v1.7h-4.6v2.9h5.7zm28.1-9.8v11.5h-2.3V496h-5.2v4.6h-2.3v-11.5h2.3v4.6h5.2v-4.6h2.3zm16.6 9.8v1.7h-8v-11.5h8v1.7h-5.7v3.4h4.6v1.7h-4.6v2.9h5.7zm8.6 1.7v-11.5h5.2c.6 0 1.1 0 1.7.6.6 0 .6.6 1.1 1.1s.6.6.6 1.1v1.1c0 .6 0 1.1-.6 2.3-.6.6-1.1 1.1-1.7 1.1l2.9 4h-2.3l-2.3-4h-2.3v4l-2.3.2zm1.7-5.8h3.5s.6 0 .6-.6c0 0 0-.6.6-.6v-1.2s0-.6-.6-.6l-.6-.6h-3.5v3.6zm22.9 4.1v1.7h-8v-11.5h8v1.7h-5.7v3.4h5.2v1.7h-4.6v2.9h5.1z"/><path fill="#5A5A5A" d="M593.1 445s-9.2-2.9-24.6-8.6c-8-3.4-17.8-5.7-28.7-9.2s-23.5-6.9-37.2-10.3c-3.4-1.1-6.9-1.7-10.3-2.9-3.4-.6-7.4-1.7-10.9-2.3-7.4-1.7-15.5-3.4-22.9-5.2-8-1.7-16-2.9-24.6-4-8.6-1.1-17.2-2.9-25.8-3.4-8.6-1.1-17.8-2.3-26.9-2.9s-18.3-1.1-27.5-1.7c-4.6-.6-9.2-.6-13.8-1.1-4.6 0-9.2 0-14.3-.6-9.2 0-18.9-.6-28.1-.6-9.7 0-18.9.6-28.1.6-4.6 0-9.7 0-14.3.6-4.6.6-9.2.6-13.8 1.1-9.2.6-18.3 1.1-27.5 1.7-9.2 1.1-17.8 2.3-26.9 2.9-8.6.6-17.2 2.3-25.8 3.4-8.6 1.1-16.6 2.3-24.6 4-8 1.7-15.5 3.4-22.9 5.2-4 .6-7.4 1.7-10.9 2.3-3.4 1.1-6.9 1.7-10.3 2.9-13.8 3.4-26.4 6.9-37.2 10.3s-20.6 6.3-28.7 9.2C10.9 442.1 1.7 445 1.7 445s8.6-4.6 22.9-12.6c5.7-4 15.5-8 25.8-12.6 2.9-1.1 5.7-2.3 8.6-3.4 1.7-.6 2.9-1.1 4.6-1.7 1.7-.6 2.9-1.1 4.6-1.7 6.3-2.3 12.6-4.6 19.5-6.9 3.4-1.1 6.9-2.3 10.3-3.4 3.4-1.1 7.4-2.3 10.9-3.4 7.4-2.3 15.5-4.6 23.5-6.3 8-2.3 16.6-3.4 24.6-5.7 8.6-1.7 17.2-4 26.4-5.2 9.2-1.1 18.3-2.9 27.5-4s18.9-1.7 28.1-2.9c4.6-.6 9.7-.6 14.3-1.1 4.6-.6 9.7-.6 14.3-.6 9.7 0 19.5-.6 28.7-.6 9.7 0 19.5.6 29.2.6 4.6 0 9.7 0 14.3.6 4.6.6 9.7.6 14.3 1.1 9.7 1.1 18.9 1.7 28.1 2.9 9.2 1.1 18.3 2.9 27.5 4s17.8 2.9 26.4 5.2c8.6 1.7 16.6 3.4 24.6 5.7s15.5 4.6 23.5 6.3c4 1.1 7.4 2.3 10.9 3.4 3.4 1.1 6.9 2.3 10.3 3.4 6.9 2.3 13.2 4.6 19.5 6.9 1.7.6 2.9 1.1 4.6 1.7 1.7.6 2.9 1.1 4.6 1.7 2.9 1.1 5.7 2.3 8.6 3.4 10.9 4.6 20.1 8.6 27.5 12.6 14.3 8 22.9 12.6 22.9 12.6z"/><path fill="#5A5A5A" d="M185.7 390.5V277.1l109.4-80.3 110.1 80.3v113.4h35.5V258.7l-145.6-106-145.5 106v131.8z"/><path fill="#5A5A5A" d="M295.1 98.9L103.2 237v166.7h20.6V247.3l171.3-123.2L467 247.3v156.4h20.7V237z"/><path fill="#5A5A5A" d="M219.5 381.4v-86l75.6-55 76.2 55v86h10.4v-91.7l-86.6-61.9-85.9 61.9v91.7z"/><g fill="#5A5A5A"><path d="M138.7 1266.2V1229h16c6.9 0 10.3 2.9 10.3 8.6 0 4.6-3.4 8.6-10.3 10.9l12.6 17.2H161l-12-16.6v-2.9c6.9-1.1 10.3-4 10.3-8 0-3.4-1.7-5.2-5.7-5.2h-10.3v33.2h-4.6zm57.9-37.3v4h-18.9v12.6H196v4h-18.3v13.2h20.1v4h-24.6v-37.2h23.5v-.6zm9.1 37.3h-5.2L216 1229h5.2l16 37.2H232l-4.6-11.5h-12l1.1-4h9.2l-6.9-16.6-13.1 32.1zm41.3-37.3v33.2h19.5v4h-24.1v-37.2h4.6zm62.5 0v4H290v12.6h18.3v4H290v13.2h20v4h-24.6v-37.2h24.1v-.6zm6.8 36.1v-4.6c4 1.1 8 2.3 12.6 2.3 6.3 0 9.7-2.3 9.7-6.9 0-4-2.3-5.7-6.9-5.7h-5.2c-7.4 0-11.5-3.4-11.5-10.3s5.2-10.3 14.9-10.3c4.6 0 8.6.6 12 1.7v4.6c-3.4-1.1-7.4-2.3-12-2.3-6.9 0-10.3 2.3-10.3 6.9 0 4 2.3 5.7 6.9 5.7h4.6c8 0 12 3.4 12 10.3 0 7.4-4.6 10.9-14.3 10.9-4.4-1.1-8.5-1.7-12.5-2.3zm59.1-36.1v4h-11.5v33.2h-4.6V1233h-11.5v-4h27.6zm2.8 37.3H373l15.5-37.2h5.2l16 37.2h-5.2l-4.6-11.5h-12l1.1-4h9.2l-6.9-16.6-13.1 32.1zm57.9-37.3v4h-11.5v33.2H420V1233h-11.5v-4h27.6zm29.8 0v4h-19.5v12.6h18.3v4h-18.3v13.2h20.1v4h-24.6v-37.2H466v-.6zm-342.7 53.3l2.9 5.7 2.9-5.7h2.3l-4 7.4v4H125v-4l-4-7.4h2.2zm19.5 11.5c-.6 0-1.7 0-2.3-.6-.6-.6-1.1-.6-1.7-1.1-.6-.6-.6-1.1-1.1-1.7 0-.6-.6-1.1-.6-2.3 0-.6 0-1.7.6-2.3 0-.6.6-1.1 1.1-1.7.6-.6 1.1-1.1 1.7-1.1.6-.6 1.1-.6 2.3-.6.6 0 1.7 0 2.3.6.6.6 1.1.6 1.7 1.1.6.6.6 1.1 1.1 1.7 0 .6.6 1.1.6 2.3 0 .6 0 1.7-.6 2.3 0 .6-.6 1.1-1.1 1.7-.6.6-1.1 1.1-1.7 1.1-.6.6-1.2.6-2.3.6zm-2.9-5.7v1.1c0 .6.6 1.1.6 1.1 0 .6.6.6 1.1.6.6 0 .6.6 1.1.6.6 0 1.1 0 1.1-.6.6 0 .6-.6 1.1-1.1 0-.6.6-.6.6-1.1v-2.2c0-.6-.6-1.1-.6-1.1 0-.6-.6-.6-1.1-.6s-.6-.6-1.1-.6c-.6 0-1.1 0-1.1.6-.6 0-.6.6-1.1 1.1 0 .6-.6.6-.6 1.1v1.1zm21.2 3.4c.6 0 1.1 0 1.1-.6.6 0 .6-.6 1.1-.6 0-.6.6-.6.6-1.1v-6.8h2.3v8c0 .6-.6 1.1-1.1 1.7-.6.6-1.1 1.1-1.7 1.1-.6.6-1.1.6-2.3.6-1.1 0-1.7 0-2.3-.6s-1.1-.6-1.7-1.1c-.6-.6-.6-1.1-.6-1.7v-8h2.3v6.8c0 .6 0 .6.6 1.1 0 .6.6.6.6.6.6.6.6.6 1.1.6zm13.8 2.3v-11.5h5.2c.6 0 1.1 0 1.7.6.6 0 .6.6 1.1 1.1.6.6.6.6.6 1.1v1.1c0 .6 0 1.1-.6 2.3-.6.6-1.1 1.1-1.7 1.1l2.9 4h-2.3l-2.3-4h-2.3v4l-2.3.2zm2.3-5.7h3.5s.6 0 .6-.6c0 0 0-.6.6-.6v-1.2s0-.6-.6-.6l-.6-.6h-3.5v3.6zm33.2-4h-3.4v9.2h-2.3v-9.2h-3.4v-1.7h9.7v1.7h-.6zm5.7 9.7l4.6-11.5h1.7l4.6 11.5h-2.3l-1.1-2.9h-4l-1.1 2.9H216zm5.2-9.2l-1.7 4.6h3.4l-1.7-4.6zm20.6 7.5c-1.1 1.1-1.7 1.1-2.9 1.1-.6 0-1.1 0-2.3-.6-.6-.6-1.1-.6-1.7-1.1-.6-.6-.6-1.1-1.1-1.7 0-.6-.6-1.7-.6-2.3 0-.6 0-1.7.6-2.3 0-.6.6-1.1 1.1-1.7.6-.6 1.1-1.1 1.7-1.1.6-.6 1.1-.6 2.3-.6 1.1 0 1.7 0 2.9.6l1.7 1.7-1.7 1.1c0-.6-.6-1.1-1.1-1.1-.6-.6-1.1-.6-1.7-.6s-1.1 0-1.1.6c-.6 0-.6.6-1.1.6 0 .6-.6.6-.6 1.1v3.4c0 .6.6 1.1.6 1.1.6.6.6.6 1.1.6.6 0 .6.6 1.1.6 1.1 0 1.7-.6 2.9-1.7v-.6h-2.3v-1.7h4v5.7h-1.7v-1.1zm10.3 1.7v-11.5h2.3v9.2h5.7v1.7h-8v.6zm16.1 0v-11.5h2.3v11.5h-2.3zm13.2-7.5v7.4h-2.3v-11.5h1.7l5.7 7.4v-7.4h2.3v11.5h-1.7l-5.7-7.4zm24 5.2v1.7H298v-11.5h8v1.7h-5.7v2.9h4.6v1.7h-4.6v2.9h5.2v.6zm25.8-6.3c-.5 0-.5 0 0 0-.6-.6-.6-.6-1.1-.6 0 0-.6 0-1.1-.6h-1.1c-.6 0-1.1 0-1.1.6-.6 0-.6.6-.6 1.1v.6s0 .6.6.6c0 0 .6 0 .6.6.6 0 .6 0 1.1.6.6 0 1.1.6 1.7.6s.6.6 1.1.6.6.6.6 1.1v1.1c0 .6 0 1.1-.6 1.7 0 .6-.6.6-1.1 1.1-.6 0-.6.6-1.1.6h-1.7c-1.1 0-1.7 0-2.3-.6-.6 0-1.7-.6-2.3-1.1l1.1-1.7.6.6s.6.6 1.1.6.6 0 1.1.6h1.1c1.1 0 1.7-.6 1.7-1.1v-.6l-.6-.6s-.6 0-1.1-.6c-.6 0-.6 0-1.1-.6-.6 0-1.1-.6-1.1-.6-.6 0-.6-.6-1.1-.6l-.6-.6v-1.1c0-.6 0-1.1.6-1.7 0-.6.6-.6 1.1-1.1.6-.6.6-.6 1.1-.6h1.7c.6 0 1.7 0 2.3.6.6 0 1.1.6 1.7 1.1h-1.2zm9.2 8.6v-11.5h4.6c.6 0 1.1 0 1.7.6.6 0 .6.6 1.1 1.1.6.6.6.6.6 1.1v2.2c0 .6-.6 1.1-.6 1.1-.6.6-.6.6-1.1.6-.6 0-1.1.6-1.7.6h-2.9v4h-1.7zm2.3-5.7h2.3c.6 0 .6 0 1.1-.6 0-.6.6-.6.6-1.1v-.6s0-.6-.6-.6c0 0-.6 0-.6-.6h-2.8v3.5zm12 5.7l4.6-11.5h1.7l4.6 11.5h-2.3l-1.1-2.9h-4l-1.1 2.9h-2.4zm5.8-9.2l-1.7 4.6h3.4l-1.7-4.6zm12 3.5c0-.6 0-1.1.6-2.3 0-.6.6-1.1 1.1-1.7s1.1-1.1 1.7-1.1c.6-.6 1.7-.6 2.3-.6 1.1 0 1.7 0 2.9.6l1.7 1.7-1.7 1.1c0-.6-.6-.6-.6-.6l-.6-.6h-1.2c-.6 0-1.1 0-1.1.6-.6 0-.6.6-1.1 1.1 0 .6-.6.6-.6 1.1v2.8c0 .6.6 1.1.6 1.1 0 .6.6.6 1.1.6s.6.6 1.1.6h.6s.6 0 .6-.6l.6-.6.6-.6 1.7 1.1c0 .6-.6.6-.6 1.1-.6.6-.6.6-1.1.6s-1.1.6-1.1.6h-1.1c-.6 0-1.7 0-2.3-.6s-1.1-.6-1.7-1.1c-.6-.6-.6-1.1-1.1-1.7-1.3-1.5-1.3-2.1-1.3-2.6zm25.8 3.4v1.7h-8v-11.5h8v1.7h-5.7v2.9h4.6v1.7h-4.6v2.9h5.7v.6zm28.1-9.2v11.5h-2.3v-4.6h-5.2v4.6h-2.3v-11.5h2.3v4.6h5.2v-4.6h2.3zm16.6 9.2v1.7h-8v-11.5h8v1.7h-5.7v2.9h4.6v1.7h-4.6v2.9h5.7v.6zm8.6 2.3v-11.5h5.2c.6 0 1.1 0 1.7.6.6 0 .6.6 1.1 1.1.6.6.6.6.6 1.1v1.1c0 .6 0 1.1-.6 2.3-.6.6-1.1 1.1-1.7 1.1l2.9 4h-2.3l-2.3-4h-2.3v4l-2.3.2zm1.7-5.7h3.5s.6 0 .6-.6c0 0 0-.6.6-.6v-1.2s0-.6-.6-.6l-.6-.6h-3.5v3.6zm22.9 3.4v1.7h-8v-11.5h8v1.7h-5.7v2.9h5.2v1.7h-4.6v2.9h5.2v.6z"/><path d="M593.1 1237.5s-9.2-2.9-24.6-8.6c-8-3.4-17.8-5.7-28.7-9.2-10.9-3.4-23.5-6.9-37.2-10.3-3.4-1.1-6.9-1.7-10.3-2.9-3.4-.6-7.4-1.7-10.9-2.3-7.4-1.7-15.5-3.4-22.9-5.2-8-1.7-16-2.9-24.6-4-8.6-1.1-17.2-2.9-25.8-3.4-8.6-1.1-17.8-2.3-26.9-2.9s-18.3-1.1-27.5-1.7c-4.6-.6-9.2-.6-13.8-1.1-4.6 0-9.2 0-14.3-.6-9.2 0-18.9-.6-28.1-.6-9.7 0-18.9.6-28.1.6-4.6 0-9.7 0-14.3.6-4.6.6-9.2.6-13.8 1.1-9.2.6-18.3 1.1-27.5 1.7-9.2 1.1-17.8 2.3-26.9 2.9-8.6.6-17.2 2.3-25.8 3.4-8.6 1.1-16.6 2.3-24.6 4s-15.5 3.4-22.9 5.2c-4 .6-7.4 1.7-10.9 2.3-3.4 1.1-6.9 1.7-10.3 2.9-13.8 3.4-26.4 6.9-37.2 10.3-10.9 3.4-20.6 6.3-28.7 9.2-15.5 5.7-24.6 8.6-24.6 8.6s8.6-4.6 22.9-12.6c7.4-4 16.6-8 27.5-12.6 2.9-1.1 5.7-2.3 8.6-3.4 1.7-.6 2.9-1.1 4.6-1.7s2.9-1.1 4.6-1.7c6.3-2.3 12.6-4.6 19.5-6.9 3.4-1.1 6.9-2.3 10.3-3.4s7.4-2.3 10.9-3.4c7.4-2.3 15.5-4.6 23.5-6.3 8-2.3 16.6-3.4 24.6-5.7 8.6-1.7 17.2-4 26.4-5.2 9.2-1.1 18.3-2.9 27.5-4s18.9-1.7 28.1-2.9c4.6-.6 9.7-.6 14.3-1.1 4.6-.6 9.7-.6 14.3-.6 9.7 0 19.5-.6 28.7-.6 9.7.6 19.5.6 29.2.6 4.6 0 9.7 0 14.3.6 4.6.6 9.7.6 14.3 1.1 9.7 1.1 18.9 1.7 28.1 2.9s18.3 2.9 27.5 4 17.8 2.9 26.4 5.2c8.6 1.7 16.6 3.4 24.6 5.7 8 2.3 15.5 4.6 23.5 6.3 4 1.1 7.4 2.3 10.9 3.4 3.4 1.1 6.9 2.3 10.3 3.4 6.9 2.3 13.2 4.6 19.5 6.9 1.7.6 2.9 1.1 4.6 1.7 1.7.6 2.9 1.1 4.6 1.7 2.9 1.1 5.7 2.3 8.6 3.4 10.9 4.6 20.1 8.6 27.5 12.6 12.4 8.1 21 12.6 21 12.6z"/><path d="M185.7 1183.1v-113.5l109.4-80.2 110.1 80.2v113.5h35.5v-131.2L295.1 945.3l-145.5 106.6v131.2z"/><path d="M295.1 891.4l-191.9 138.1v166.8h20.6v-155.9l171.3-123.8L467 1040.4v155.9h20.7v-166.8z"/><path d="M219.5 1173.9V1088l75.6-54.5 76.2 54.5v85.9h10.4v-91.1l-86.6-61.9-85.9 61.9v91.1z"/></g></svg>