<svg xmlns="http://www.w3.org/2000/svg" viewBox="0 0 600 600"><g fill="#5A5A5A"><path d="M-538.6 714.7h1668v834h-1668zm675.3-172V505h16.2c6.9 0 10.4 2.9 10.4 8.7 0 4.6-3.5 8.7-10.4 11l12.7 17.4h-6.4L147 525.3v-2.9c6.9-1.2 10.4-4.1 10.4-8.1 0-3.5-1.7-5.2-5.8-5.2h-10.4v33.6h-4.5zm58.5-37.7v4.1h-19.7v12.7H194v4.1h-18.5v13.3h20.3v4.1h-24.9v-37.6h24.3v-.7zm8.7 37.7h-5.2l15.6-37.6h5.8l16.2 37.6h-5.2l-4.6-11.6h-12.2l1.2-4.1h9.3l-7.5-16.8-13.4 32.5zm42.2-37.7v33.6h19.7v4.1h-24.3V505h4.6zm62.6 0v4.1H289v12.7h18.5v4.1H289v13.3h20.3v4.1h-24.9v-37.6h24.3v-.7zm6.9 36.5v-4.6c4.1 1.2 8.1 2.3 12.7 2.3 6.4 0 9.8-2.3 9.8-6.9 0-4.1-2.3-5.8-6.9-5.8h-4.6c-8.1 0-11.6-3.5-11.6-10.4s5.2-10.4 15.1-10.4c4.6 0 8.7.6 12.2 1.7v4.6c-3.5-1.2-7.5-2.3-12.2-2.3-6.9 0-10.4 2.3-10.4 6.9 0 4.1 2.3 5.8 6.9 5.8h4.6c8.1 0 12.2 3.5 12.2 10.4 0 7.5-4.6 11-14.5 11-5.2-1.1-9.2-1.1-13.3-2.3zm59.7-36.5v4.1h-11.6v33.6h-4.6v-33.6h-11.6V505h27.8zm2.9 37.7H373l15.6-37.6h5.2l16.2 37.6h-4.6l-4.6-11.6H388l1.2-4.1h9.3l-6.9-16.8-13.4 32.5zm58.5-37.7v4.1h-11.6v33.6h-4.6v-33.6h-11.6V505h27.8zm30.1 0v4.1h-19.7v12.7h18.5v4.1h-18.5v13.3h20.3v4.1h-24.9v-37.6h24.3v-.7zm-346.3 53.9l2.9 5.8 2.9-5.8h2.3l-4.1 7.5v4.1h-2.3v-4.1l-4.1-7.5h2.4zm19.7 11.6c-.6 0-1.7 0-2.3-.6-.6-.6-1.2-.6-1.7-1.2-.6-.6-.6-1.2-1.2-1.7 0-.6-.6-1.2-.6-2.3 0-.6 0-1.7.6-2.3 0-.6.6-1.2 1.2-1.7.6-.6 1.2-1.2 1.7-1.2.6-.6 1.2-.6 2.3-.6.6 0 1.7 0 2.3.6.6.6 1.2.6 1.7 1.2.6.6.6 1.2 1.2 1.7 0 .6.6 1.2.6 2.3 0 .6 0 1.7-.6 2.3 0 .6-.6 1.2-1.2 1.7-.6.6-1.2 1.2-1.7 1.2-.6.6-1.2.6-2.3.6zm-2.9-5.8v1.7c0 .5.6 1.2.6 1.2 0 .6.6.6 1.2.6s.6.6 1.2.6 1.2 0 1.2-.6c.6 0 .6-.6 1.2-1.2 0-.6.6-.6.6-1.2v-2.4c0-.6-.6-1.2-.6-1.2 0-.6-.6-.6-1.2-.6s-.6-.6-1.2-.6-1.2 0-1.2.6c-.6 0-.6.6-1.2 1.2 0 .6-.6.6-.6 1.2v.7zm21.4 4c.6 0 1.2 0 1.2-.6s.6-.6 1.2-.6c0-.6.6-.6.6-1.2v-7h2.3v8.1c0 .6-.6 1.2-1.2 1.7-.6.6-1.2 1.2-1.7 1.2-.6.6-1.2.6-2.3.6-1.2 0-1.7 0-2.3-.6s-1.2-.6-1.7-1.2c-.6-.6-.6-1.2-1.2-1.7v-8.1h2.9v7c0 .6 0 .6.6 1.2 0 .6.6.6 1.2.6-.2 0 .4.6.4.6zm13.9 1.8v-11.6h5.2c.6 0 1.2 0 1.7.6.6 0 .6.6 1.2 1.2s.6.6.6 1.2v1.2c0 .6 0 1.2-.6 2.3-.6.6-1.2 1.2-1.7 1.2l2.9 4.1h-2.3l-2.3-4.1H175v4.1l-2.4-.2zm2.3-5.8h3.5s.6 0 .6-.6c0 0 0-.6.6-.6v-1.2s0-.6-.6-.6l-.6-.6h-3.5v3.6zm33.6-4.1H205v9.3h-2.3v-9.3h-3.5v-1.7h9.3v1.7zm5.8 9.9l4.6-11.6h1.7l4.6 11.6H223l-1.2-2.9h-4.1l-1.2 2.9h-2.2zm5.8-9.3l-1.7 4.6h3.5l-1.8-4.6zm20.8 8.1c-1.2 1.2-1.7 1.2-2.9 1.2-.6 0-1.2 0-2.3-.6-.6-.6-1.2-.6-1.7-1.2-.6-.6-.6-1.2-1.2-1.7 0-.6-.6-1.7-.6-2.3 0-.6 0-1.7.6-2.3 0-.6.6-1.2 1.2-1.7.6-.6 1.2-1.2 1.7-1.2.6-.6 1.2-.6 2.3-.6 1.2 0 1.7 0 2.9.6l1.7 1.7-2.3 1.2c0-.6-.6-1.2-1.2-1.2-.6-.6-1.2-.6-1.7-.6s-1.2 0-1.2.6c-.6 0-.6.6-1.2.6 0 .6-.6.6-.6 1.2v3.4c0 .5.6 1.2.6 1.2s.6.6 1.2.6.6.6 1.2.6c1.2 0 1.7-.6 2.9-1.7v-.6H238v-1.7h4.1v5.8h-1.7v-1.2h.5zm9.9 1.2v-11.6h2.3v9.3h5.8v1.7h-8.1v.6zm16.2 0v-11.6h2.3v11.6H267zm13.3-7.6v7.5H278v-11.6h1.7l5.8 7.5v-7.5h2.3v11.6h-1.7l-5.8-7.5zm24.9 5.2v1.7h-8.1v-11.6h8.1v1.7h-5.8v2.9h4.6v1.7h-4.6v3.5h5.8zm25.5-6.3s-.6 0 0 0c-.6-.6-.6-.6-1.2-.6 0 0-.6 0-1.2-.6h-1.2c-.6 0-1.2 0-1.2.6-.6 0-.6.6-.6 1.2v.6s0 .6.6.6c0 0 .6 0 .6.6.6 0 .6 0 1.2.6.6 0 1.2.6 1.7.6.6 0 .6.6 1.2.6s.6.6.6 1.2v1.2c0 .6 0 1.2-.6 1.7 0 .6-.6.6-1.2 1.2-.6 0-.6.6-1.2.6h-1.7c-.6 0-1.7 0-2.3-.6-.6 0-1.7-.6-2.3-1.2l1.2-1.7.6.6s.6.6 1.2.6.6 0 1.2.6h1.2c1.2 0 1.7-.6 1.7-1.2v-.6l-.6-.6s-.6 0-1.2-.6c-.6 0-.6 0-1.2-.6-.6 0-1.2-.6-1.2-.6-.6 0-.6-.6-1.2-.6s-.6-.6-.6-.6v-1.2c0-.6 0-1.2.6-1.7 0-.6.6-.6 1.2-1.2s.6-.6 1.2-.6h1.7c.6 0 1.7 0 2.3.6.6 0 1.2.6 1.7 1.2l-1-.1zm9.3 8.7v-11.6h4.6c.6 0 1.2 0 1.7.6.6 0 .6.6 1.2 1.2s.6.6.6 1.2v2.4c0 .6-.6 1.2-.6 1.2-.6.6-.6.6-1.2.6s-1.2.6-1.7.6h-2.9v4.1l-1.7-.3zm2.3-5.8h2.3c.6 0 .6 0 1.2-.6 0-.6.6-.6.6-1.2v-.6s0-.6-.6-.6c0 0-.6 0-.6-.6h-2.9v3.6zm12.1 5.8l4.6-11.6h1.7l4.6 11.6H363l-1.2-2.9h-4.1l-1.2 2.9h-2.1zm5.8-9.3l-1.7 4.6h3.5l-1.8-4.6zm12.2 3.5c0-.6 0-1.2.6-2.3 0-.6.6-1.2 1.2-1.7.6-.6 1.2-1.2 1.7-1.2.6-.6 1.7-.6 2.3-.6 1.2 0 1.7 0 2.9.6l1.7 1.7-2.3 1.2c0-.6-.6-.6-.6-.6l-.6-.6h-1.2c-.6 0-1.2 0-1.2.6-.6 0-.6.6-1.2 1.2 0 .6-.6.6-.6 1.2v2.9c0 .6.6 1.2.6 1.2 0 .6.6.6 1.2.6s.6.6 1.2.6h.6s.6 0 .6-.6l.6-.6.6-.6 1.7 1.2c0 .6-.6.6-.6 1.2-.6.6-.6.6-1.2.6s-.6.6-1.2.6H378c-.6 0-1.7 0-2.3-.6-.6-.6-1.2-.6-1.7-1.2-.6-.6-.6-1.2-1.2-1.7-.4-.8-.4-2.5-.4-3.1zm26.1 3.4v1.7h-8.1v-11.6h8.1v1.7h-5.8v2.9h4.6v1.7h-4.6v3.5h5.8zm28.3-9.2v11.6h-2.3v-4.6h-5.2v4.6H417v-11.6h2.3v4.6h5.2v-4.6h2.3zm16.8 9.2v1.7h-8.1v-11.6h8.1v1.7h-5.8v2.9h4.6v1.7h-4.6v3.5h5.8zm8.7 2.4v-11.6h5.2c.6 0 1.2 0 1.7.6.6 0 .6.6 1.2 1.2s.6.6.6 1.2v1.2c0 .6 0 1.2-.6 2.3-.6.6-1.2 1.2-1.7 1.2l2.9 4.1h-2.3l-2.3-4.1h-2.3v4.1l-2.4-.2zm2.3-5.8h3.5s.6 0 .6-.6c0 0 0-.6.6-.6v-1.2s0-.6-.6-.6l-.6-.6h-3.5v3.6zm23.2 3.4v1.7h-8.1v-11.6h8.1v1.7H472v2.9h4.6v1.7H472v3.5h5.8zM300 29.5L0 329.5l134.4 134.4h72.4V221.2h38.8v156.4h114.7v-52.1h37.1v139h68.9l134.4-134.4L300 29.5zM151.7 422.2L59 329.5l105.4-105.4v198.1h-12.7zm296.6 0H439v-139H318v52.1h-30.7V179h-78.2L300 88l240.9 241-92.6 93.2z"/><path d="M136.7 1361v-37.6h16.2c6.9 0 10.4 2.9 10.4 8.7 0 4.6-3.5 8.7-10.4 11l12.7 17.4h-6.4l-12.2-16.8v-2.9c6.9-1.2 10.4-4.1 10.4-8.1 0-3.5-1.7-5.2-5.8-5.2h-10.4v33.6l-4.5-.1zm58.5-37.1v4.1h-19.7v12.7H194v4.1h-18.5v13.3h20.3v4.1h-24.9v-37.6h24.3v-.7zm8.7 37.1h-5.2l15.6-37.6h5.8l16.2 37.6h-5.2l-4.6-11.6h-12.2l1.2-4.1h9.3l-6.9-16.8-14 32.5zm42.2-37.1v33.6h19.7v4.1h-24.3V1324h4.6zm62.6 0v4.1H289v12.7h18.5v4.1H289v13.3h20.3v4.1h-24.9v-37.6h24.3v-.7zm6.9 35.9v-4.6c4.1 1.2 8.1 2.3 12.7 2.3 6.4 0 9.8-2.3 9.8-6.9 0-4.1-2.3-5.8-6.9-5.8h-4.6c-8.1 0-11.6-3.5-11.6-10.4s5.2-10.4 15.1-10.4c4.6 0 8.7.6 12.2 1.7v4.6c-3.5-1.2-7.5-2.3-12.2-2.3-6.9 0-10.4 2.3-10.4 6.9 0 4.1 2.3 5.8 6.9 5.8h4.6c8.1 0 12.2 3.5 12.2 10.4 0 7.5-4.6 11-14.5 11-5.2-.5-9.2-1.1-13.3-2.3zm59.7-35.9v4.1h-11.6v33.6h-4.6V1328h-11.6v-4.1h27.8zm2.9 37.1H373l15.6-37.6h5.2L410 1361h-4.6l-4.6-11.6H388l1.2-4.1h9.3l-6.9-16.8-13.4 32.5zm58.5-37.1v4.1h-11.6v33.6h-4.6V1328h-11.6v-4.1h27.8zm30.1 0v4.1h-19.7v12.7h18.5v4.1h-18.5v13.3h20.3v4.1h-24.9v-37.6h24.3v-.7zm-346.3 53.3l2.9 5.8 2.9-5.8h2.3l-4.1 7.5v4.1h-2.3v-4.1l-4.1-7.5h2.4zm19.7 11.6c-.6 0-1.7 0-2.3-.6s-1.2-.6-1.7-1.2c-.6-.6-.6-1.2-1.2-1.7 0-.6-.6-1.2-.6-2.3 0-.6 0-1.7.6-2.3 0-.6.6-1.2 1.2-1.7.6-.6 1.2-1.2 1.7-1.2.6-.6 1.2-.6 2.3-.6.6 0 1.7 0 2.3.6.6.6 1.2.6 1.7 1.2.6.6.6 1.2 1.2 1.7 0 .6.6 1.2.6 2.3 0 .6 0 1.7-.6 2.3 0 .6-.6 1.2-1.2 1.7-.6.6-1.2 1.2-1.7 1.2-.6.6-1.2.6-2.3.6zm-2.9-5.8v1.2c0 .6.6 1.2.6 1.2 0 .6.6.6 1.2.6s.6.6 1.2.6 1.2 0 1.2-.6c.6 0 .6-.6 1.2-1.2 0-.6.6-.6.6-1.2v-2.9c0-.6-.6-1.2-.6-1.2 0-.6-.6-.6-1.2-.6s-.6-.6-1.2-.6-1.2 0-1.2.6c-.6 0-.6.6-1.2 1.2 0 .6-.6.6-.6 1.2v1.7zm21.4 4.1c.6 0 1.2 0 1.2-.6.6 0 .6-.6 1.2-.6 0-.6.6-.6.6-1.2v-7h2.3v8.1c0 .6-.6 1.2-1.2 1.7-.6.6-1.2 1.2-1.7 1.2-.6.6-1.2.6-2.3.6-1.2 0-1.7 0-2.3-.6s-1.2-.6-1.7-1.2c-.6-.6-.6-1.2-1.2-1.7v-8.1h2.9v7c0 .6 0 .6.6 1.2 0 .6.6.6 1.2.6-.2.6.4.6.4.6zm13.9 1.7v-11.6h5.2c.6 0 1.2 0 1.7.6.6 0 .6.6 1.2 1.2s.6.6.6 1.2v1.2c0 .6 0 1.2-.6 2.3-.6.6-1.2 1.2-1.7 1.2l2.9 4.1h-2.3l-2.3-4.1H175v4.1l-2.4-.2zm2.3-5.8h3.5s.6 0 .6-.6c0 0 0-.6.6-.6v-1.2s0-.6-.6-.6l-.6-.6h-3.5v3.6zm33.6-3.5H205v9.8h-2.3v-9.8h-3.5v-1.7h9.3v1.7zm5.8 9.3l4.6-11.6h1.7l4.6 11.6H223l-1.2-2.9h-4.1l-1.2 2.9h-2.2zm5.8-9.3l-1.7 4.6h3.5l-1.8-4.6zm20.8 8.1c-1.2 1.2-1.7 1.2-2.9 1.2-.6 0-1.2 0-2.3-.6-.6-.6-1.2-.6-1.7-1.2s-.6-1.2-1.2-1.7c0-.6-.6-1.7-.6-2.3 0-.6 0-1.7.6-2.3 0-.6.6-1.2 1.2-1.7.6-.6 1.2-1.2 1.7-1.2.6-.6 1.2-.6 2.3-.6 1.2 0 1.7 0 2.9.6l1.7 1.7-1.7 1.2c0-.6-.6-1.2-1.2-1.2-.6-.6-1.2-.6-1.7-.6-.6 0-1.2 0-1.2.6-.6 0-.6.6-1.2.6 0 .6-.6.6-.6 1.2v3.4c0 .5.6 1.2.6 1.2.6.6.6.6 1.2.6s.6.6 1.2.6c1.2 0 1.7-.6 2.9-1.7v-.6h-2.3v-1.7h4.1v5.8H241v-1.3zm9.9 1.2v-11.6h2.3v9.3h5.8v1.7h-8.1v.6zm16.2 0v-11.6h2.3v11.6H267zm13.3-7.5v7.5H278v-11.6h1.7l5.8 7.5v-7.5h2.3v11.6h-1.7l-5.8-7.5zm24.9 5.8v1.7h-8.1v-11.6h8.1v1.7h-5.8v2.9h4.6v1.7h-4.6v2.9h5.8v.7zm25.5-7s-.6 0 0 0c-.6-.6-.6-.6-1.2-.6 0 0-.6 0-1.2-.6h-1.2c-.6 0-1.2 0-1.2.6-.6 0-.6.6-.6 1.2v.6s0 .6.6.6c0 0 .6 0 .6.6.6 0 .6 0 1.2.6.6 0 1.2.6 1.7.6.6 0 .6.6 1.2.6s.6.6.6 1.2v1.2c0 .6 0 1.2-.6 1.7 0 .6-.6.6-1.2 1.2-.6 0-.6.6-1.2.6h-1.7c-.6 0-1.7 0-2.3-.6-.6 0-1.7-.6-2.3-1.2l1.2-1.7.6.6s.6.6 1.2.6.6 0 1.2.6h1.2c1.2 0 1.7-.6 1.7-1.2v-.6l-.6-.6s-.6 0-1.2-.6c-.6 0-.6 0-1.2-.6-.6 0-1.2-.6-1.2-.6-.6 0-.6-.6-1.2-.6l-.6-.6v-1.2c0-.6 0-1.2.6-1.7 0-.6.6-.6 1.2-1.2s.6-.6 1.2-.6h1.7c.6 0 1.7 0 2.3.6.6 0 1.2.6 1.7 1.2h-1zm9.3 8.7v-11.6h4.6c.6 0 1.2 0 1.7.6.6 0 .6.6 1.2 1.2s.6.6.6 1.2v2.4s-.6.6-.6 1.2c-.6.6-.6.6-1.2.6s-1.2.6-1.7.6h-2.9v4.1H340zm2.3-5.8h2.3c.6 0 .6 0 1.2-.6 0-.6.6-.6.6-1.2v-.6s0-.6-.6-.6c0 0-.6 0-.6-.6h-2.9v3.6zm12.1 5.8l4.6-11.6h1.7l4.6 11.6H363l-1.2-2.9h-4.1l-1.2 2.9h-2.1zm5.8-9.3l-1.7 4.6h3.5l-1.8-4.6zm12.2 3.5c0-.6 0-1.2.6-2.3 0-.6.6-1.2 1.2-1.7.6-.6 1.2-1.2 1.7-1.2.6-.6 1.7-.6 2.3-.6 1.2 0 1.7 0 2.9.6l1.7 1.7-1.7 1.2c0-.6-.6-.6-.6-.6l-.6-.6h-1.2c-.6 0-1.2 0-1.2.6-.6 0-.6.6-1.2 1.2 0 .6-.6.6-.6 1.2v2.9c0 .5.6 1.2.6 1.2 0 .6.6.6 1.2.6s.6.6 1.2.6h.6s.6 0 .6-.6.6-.6.6-.6l.6-.6 1.7 1.2c0 .6-.6.6-.6 1.2-.6.6-.6.6-1.2.6s-.6.6-1.2.6h-1.2c-.6 0-1.7 0-2.3-.6s-1.2-.6-1.7-1.2-.6-1.2-1.2-1.7c-.4-1.4-1-2.5-1-3.1zm26.1 4.1v1.7h-8.1v-11.6h8.1v1.7h-5.8v2.9h4.6v1.7h-4.6v2.9h5.8v.7zm28.3-9.9v11.6h-2.3v-4.6h-5.2v4.6H417v-11.6h2.3v4.6h5.2v-4.6h2.3zm16.8 9.9v1.7h-8.1v-11.6h8.1v1.7h-5.8v2.9h4.6v1.7h-4.6v2.9h5.8v.7zm8.7 1.7v-11.6h5.2c.6 0 1.2 0 1.7.6.6 0 .6.6 1.2 1.2s.6.6.6 1.2v1.2c0 .6 0 1.2-.6 2.3-.6.6-1.2 1.2-1.7 1.2l2.9 4.1h-2.3l-2.3-4.1h-2.3v4.1l-2.4-.2zm2.3-5.8h3.5s.6 0 .6-.6c0 0 0-.6.6-.6v-1.2s0-.6-.6-.6l-.6-.6h-3.5v3.6zm23.2 4.1v1.7h-8.1v-11.6h8.1v1.7H472v2.9h4.6v1.7H472v2.9h5.8v.7zM300 847.9l-300 300 134.4 134.4h72.4v-242.7h38.8V1196h114.7v-52.1h37.1v139h68.9l134.4-134.4L300 847.9zm-148.3 392.6L59 1147.8l105.4-105.4v198.1h-12.7zm296.6 0H439v-139H318v52.1h-30.7V997.3h-78.2l90.9-90.9 240.9 240.9-92.6 93.2z"/></g></svg>