<svg xmlns="http://www.w3.org/2000/svg" viewBox="0 115 600 485"><g fill="#5A5A5A"><path d="M-772.3 822.8h2138.6v1069.3H-772.3zM92.8 564.4v-48.3h20.8c8.9 0 13.4 3.7 13.4 11.1 0 5.9-4.5 11.1-13.4 14.1l16.3 22.3h-8.2l-15.6-21.5v-3.7c9.7-.7 14.1-4.5 14.1-10.4 0-4.5-2.2-6.7-7.4-6.7H99.5v43.1h-6.7zm75-47.6v5.2h-25.2v16.3h23.8v5.2h-23.8v17.1h26v3.7h-31.9V516h31.2v.8zm11.9 47.6H173l20-48.3h6.7l20.8 48.3h-6.7l-5.9-14.9h-15.6l1.5-5.2h11.9l-8.9-21.5-17.1 41.6zm54.2-47.6v43.1h25.2v4.5H228v-48.3h5.9v.7zm80.2 0v5.2h-25.2v16.3h23.8v5.2h-23.8v17.1h26v3.7H283V516h31.2v.8zm8.9 46.1V557c5.2 1.5 10.4 3 16.3 3 8.2 0 12.6-3 12.6-8.9 0-5.2-3-7.4-8.9-7.4h-5.9c-10.4 0-14.9-4.5-14.9-13.4s6.7-13.4 19.3-13.4c5.9 0 11.1.7 15.6 2.2v5.9c-4.5-1.5-9.7-3-15.6-3-8.9 0-13.4 3-13.4 8.9 0 5.2 3 7.4 8.9 7.4h5.9c10.4 0 15.6 4.5 15.6 13.4 0 9.7-5.9 14.1-18.6 14.1-6.5-.7-11.7-1.4-16.9-2.9zm76.5-46.1v5.2h-14.9v42.3h-5.9v-43.1h-14.9V516h35.6v.8zm3.7 47.6h-6.7l20-48.3h6.7l20.8 48.3h-6.7l-5.9-14.9h-15.6l1.5-5.2h11.9l-8.9-21.5-17.1 41.6zm75-47.6v5.2h-14.9v42.3h-5.9v-43.1h-14.9V516h35.6v.8zm38.6 0v5.2h-25.2v16.3h23.8v5.2h-23.8v17.1h26v3.7h-31.9V516h31.2v.8zm-444 68.3l3.7 7.4 3.7-7.4h3l-5.2 9.7v5.2h-3v-5.2l-5.2-9.7h3zM98 600c-.7 0-2.2 0-3-.7-.7-.7-1.5-.7-2.2-1.5-.7-.7-.7-1.5-1.5-2.2 0-.7-.7-1.5-.7-3 0-.7 0-2.2.7-3 0-.7.7-1.5 1.5-2.2.7-.7 1.5-1.5 2.2-1.5.7-.7 1.5-.7 3-.7.7 0 2.2 0 3 .7.7.7 1.5.7 2.2 1.5.7.7.7 1.5 1.5 2.2.7 1.5.7 2.2.7 3s0 2.2-.7 3c0 .7-.7 1.5-1.5 2.2-.7.7-1.5 1.5-2.2 1.5s-1.5.7-3 .7zm-3.7-7.4v2.2c0 .7.7 1.5.7 1.5 0 .7.7.7 1.5.7.7 0 .7.7 1.5.7s1.5 0 1.5-.7c.7 0 .7-.7 1.5-1.5 0-.7.7-.7.7-1.5v-3c0-.7-.7-1.5-.7-1.5 0-.7-.7-.7-1.5-.7-.7 0-.7-.7-1.5-.7s-1.5 0-1.5.7c-.7 0-.7.7-1.5 1.5 0 .7-.7.7-.7 1.5v.8zm27.5 5.2c.7 0 1.5 0 1.5-.7.7 0 .7-.7 1.5-.7 0-.7.7-.7.7-1.5V586h3v10.4c0 .8-.7 1.5-1.5 2.2-.7.7-1.5 1.5-2.2 1.5-.7.7-1.5.7-3 .7s-2.2 0-3-.7c-.7-.7-1.5-.7-2.2-1.5-.7-.7-.7-1.5-.7-2.2V586h3v8.9c0 .7 0 .7.7 1.5 0 .7.7.7.7.7.7.7.7.7 1.5.7zm17.8 2.2v-14.9h6.7c.7 0 1.5 0 2.2.7.7 0 .7.7 1.5 1.5.7.7.7.7.7 1.5v1.5c0 .7 0 1.5-.7 3 0 0-.7.7-1.5.7l3.7 5.2h-3l-3-5.2h-3.7v5.2h-3v.8zm3-7.4h4.4s.7 0 .7-.7c0 0 0-.7.7-.7v-1.4s0-.7-.7-.7l-.7-.7h-4.4v4.2zm43-5.2h-4.5v11.9h-3v-11.9h-4.5v-2.2h12.6v2.2h-.6zm7.5 12.6l5.9-14.9h2.2l5.9 14.9h-3l-1.5-3.7h-5.2L196 600h-2.9zm6.7-11.9l-1.5 5.9h3.7l-2.2-5.9zm27.4 10.4c-1.5 1.5-2.2 1.5-3.7 1.5-.7 0-1.5 0-3-.7-.7-.7-1.5-.7-2.2-1.5-.7-.7-.7-1.5-1.5-2.2 0-.7-.7-2.2-.7-3 0-.7 0-2.2.7-3 0-.7.7-1.5 1.5-2.2.7-.7 1.5-1.5 2.2-1.5.7-.7 1.5-.7 3-.7s2.2 0 3.7.7l2.2 2.2-2.2 1.5c0-.7-.7-1.5-1.5-1.5-.7-.7-1.5-.7-2.2-.7s-1.5 0-1.5.7c-.7 0-.7.7-1.5.7 0 .7-.7.7-.7 1.5v4.4c0 .7.7 1.5.7 1.5.7.7.7.7 1.5.7.7 0 .7.7 1.5.7 1.5 0 2.2-.7 3.7-2.2v-.7h-3v-2.2h5.2v7.4h-2.2v-1.4zm12.7 1.5v-14.9h3v12.6h7.4v2.2h-10.4zm20.7 0v-14.9h3V600h-3zm17.1-9.7v9.7h-3v-14.9h2.2l7.4 9.7v-9.7h3V600h-2.2l-7.4-9.7zm32 7.5v2.2h-10.4v-14.9h10.4v2.2h-7.4v3.7h5.9v2.2h-5.9v3.7h7.4v.9zm32.6-8.9c-.7 0-.7 0 0 0-.7-.7-.7-.7-1.5-.7 0 0-.7 0-1.5-.7h-1.5c-.7 0-1.5 0-1.5.7-.7 0-.7.7-.7 1.5v.7s0 .7.7.7c0 0 .7 0 .7.7.7 0 .7 0 1.5.7.7 0 1.5.7 2.2.7s.7.7 1.5.7c.7 0 .7.7.7 1.5v1.5c0 .7 0 1.5-.7 2.2 0 .7-.7.7-1.5 1.5-.7 0-.7.7-1.5.7H337c-.7 0-2.2 0-3-.7-.7 0-2.2-.7-3-1.5l1.5-2.2.7.7s.7.7 1.5.7c.7 0 .7 0 1.5.7h1.5c1.5 0 2.2-.7 2.2-1.5v-.5l-.7-.7s-.7 0-1.5-.7c-.7 0-.7 0-1.5-.7-.7 0-1.5-.7-1.5-.7-.7 0-.7-.7-1.5-.7l-.7-.7v-1.5c0-.8 0-1.5.7-2.2 0-.7.7-.7 1.5-1.5.7-.7.7-.7 1.5-.7h2.2c.7 0 2.2 0 3 .7.7 0 1.5.7 2.2 1.5l-1.3-.2zm11.9 11.1v-14.9h5.9c.7 0 1.5 0 2.2.7.7 0 .7.7 1.5 1.5.7.7.7.7.7 1.5v3c0 .7-.7 1.5-.7 1.5-.7.7-.7.7-1.5.7-.7 0-1.5.7-2.2.7h-3.7v5.2l-2.2.1zm3-7.4h3c.7 0 .7 0 1.5-.7 0-.7.7-.7.7-1.5v-.7s0-.7-.7-.7c0 0-.7 0-.7-.7h-3.7l-.1 4.3zm15.6 7.4l5.9-14.9h2.2l5.9 14.9h-3l-1.5-3.7h-5.2l-1.5 3.7h-2.8zm7.4-11.9L378 594h4.5l-2.3-5.9zm15.6 4.5c0-.7 0-1.5.7-3 0-.7.7-1.5 1.5-2.2.7-.7 1.5-1.5 2.2-1.5.7-.7 2.2-.7 3-.7 1.5 0 2.2 0 3.7.7l2.2 2.2-2.2 1.5c0-.7-.7-.7-.7-.7l-.7-.7H404c-.7 0-1.5 0-1.5.7-.7 0-.7.7-1.5 1.5 0 .7-.7.7-.7 1.5v3.7c0 .7.7 1.5.7 1.5 0 .7.7.7 1.5.7s.7.7 1.5.7h.7s.7 0 .7-.7l.7-.7.7-.7 2.2 1.5c0 .7-.7.7-.7 1.5-.7.7-.7.7-1.5.7-.7 0-.7.7-1.5.7h-1.5c-.7 0-2.2 0-3-.7-.7-.7-1.5-.7-2.2-1.5-.7-.7-.7-1.5-1.5-2.2-1.3-2.3-1.3-3.1-1.3-3.8zm33.4 5.2v2.2h-10.4v-14.9h10.4v2.2h-7.4v3.7h5.9v2.2h-5.9v3.7h7.4v.9zm36.4-12.7V600h-3v-5.9h-6.7v5.9h-3v-14.9h3v5.9h6.7v-5.9h3zm21.5 12.7v2.2h-10.4v-14.9h10.4v2.2h-7.4v3.7h5.9v2.2h-5.9v3.7h7.4v.9zm11.2 2.2v-14.9h6.7c.7 0 1.5 0 2.2.7.7 0 .7.7 1.5 1.5.7.7.7.7.7 1.5v1.5c0 .7 0 1.5-.7 3-.7 0-1.5.7-2.2.7l3.7 5.2h-3.7l-3-5.2h-3v5.2h-2.2v.8zm2.2-7.4h4.4s.7 0 .7-.7c0 0 0-.7.7-.7v-1.4s0-.7-.7-.7l-.7-.7h-4.4v4.2zm29.7 5.2v2.2h-10.4v-14.9h10.4v2.2h-7.4v3.7h5.9v2.2h-5.9v3.7h7.4v.9zM218.6 343.2v125.1c14.8 7.4 30.7 13.1 47.2 15.9V377.3l35.8-26.7 35.2 26.7v106.9c16.5-3.4 32.4-8.5 47.2-15.9V343.2L301 283l-82.4 60.2zM484 304.6c0-101.2-81.9-183-183-183s-183 81.9-183 183c0 42.6 14.2 81.3 38.7 112.6v-104l144.4-104 144.4 104v104c24.3-31.3 38.5-70 38.5-112.6zm-312 16.5v113.7c6.3 6.3 13.1 11.9 19.9 17.1V329.6l109.7-80.2 109.7 80.2v121.6c6.8-5.1 13.6-10.8 19.9-17.1V320.5L301 227.8l-129 93.3z"/><path d="M92.8 1606.2v-47.5h20.8c8.9 0 13.4 3.7 13.4 11.1 0 5.9-4.5 11.1-13.4 14.1l16.3 22.3h-8.2l-15.6-21.5v-3.7c8.9-1.5 13.4-5.2 13.4-10.4 0-4.5-2.2-6.7-7.4-6.7H99.5v43.1h-6.7v-.8zm75-47.5v5.2h-25.2v16.3h23.8v5.2h-23.8v17.1h26v5.2h-31.9v-47.5h31.2v-1.5zm11.9 47.5H173l20-47.5h6.7l20.8 47.5h-6.7l-5.9-14.9h-15.6l1.5-5.2h11.9l-8.9-21.5-17.1 41.6zm54.2-47.5v43.1h25.2v5.2H228v-47.5h5.9v-.8zm80.2 0v5.2h-25.2v16.3h23.8v5.2h-23.8v17.1h26v5.2H283v-47.5h31.2v-1.5zm8.9 46v-5.9c5.2 1.5 10.4 3 16.3 3 8.2 0 12.6-3 12.6-8.9 0-5.2-3-7.4-8.9-7.4h-5.9c-10.4 0-14.9-4.5-14.9-13.4s6.7-13.4 19.3-13.4c5.9 0 11.1.7 15.6 2.2v5.9c-4.5-1.5-9.7-3-15.6-3-8.9 0-13.4 3-13.4 8.9 0 5.2 3 7.4 8.9 7.4h5.9c10.4 0 15.6 4.5 15.6 13.4 0 9.7-5.9 14.1-18.6 14.1-6.5-.7-11.7-1.4-16.9-2.9zm76.5-46v5.2h-14.9v43.1h-5.9v-43.1h-14.9v-5.2h35.7zm3.7 47.5h-6.7l20-47.5h6.7l20.8 47.5h-6.7l-5.9-14.9h-15.6l1.5-5.2h11.9l-8.9-21.5-17.1 41.6zm75-47.5v5.2h-14.9v43.1h-5.9v-43.1h-14.9v-5.2h35.7zm38.6 0v5.2h-25.2v16.3h23.8v5.2h-23.8v17.1h26v5.2h-31.9v-47.5h31.2v-1.5zm-444 68.3l3.7 7.4 3.7-7.4h3l-5.2 9.7v5.2h-3v-5.2l-5.2-9.7h3zm25.2 14.8c-.7 0-2.2 0-3-.7-.7-.7-1.5-.7-2.2-1.5-.7-.7-.7-1.5-1.5-2.2 0-.7-.7-1.5-.7-3 0-.7 0-2.2.7-3 0-.7.7-1.5 1.5-2.2.7-.7 1.5-1.5 2.2-1.5.7-.7 1.5-.7 3-.7.7 0 2.2 0 3 .7.7.7 1.5.7 2.2 1.5.7.7.7 1.5 1.5 2.2 0 .7.7 1.5.7 3 0 .7 0 2.2-.7 3 0 .7-.7 1.5-1.5 2.2-.7.7-1.5 1.5-2.2 1.5s-1.5.7-3 .7zm-3.7-7.4v1.5c0 .7.7 1.5.7 1.5 0 .7.7.7 1.5.7.7 0 .7.7 1.5.7s1.5 0 1.5-.7c.7 0 .7-.7 1.5-1.5 0-.7.7-.7.7-1.5v-3.7c0-.7-.7-1.5-.7-1.5 0-.7-.7-.7-1.5-.7-.7 0-.7-.7-1.5-.7s-1.5 0-1.5.7c-.7 0-.7.7-1.5 1.5 0 .7-.7.7-.7 1.5v2.2zm27.5 5.2c.7 0 1.5 0 1.5-.7.7 0 .7-.7 1.5-.7 0-.7.7-.7.7-1.5v-8.9h3v10.4c0 .7-.7 1.5-1.5 2.2-.7.7-1.5 1.5-2.2 1.5-.7.7-1.5.7-3 .7s-2.2 0-3-.7c-.7-.7-1.5-.7-2.2-1.5-.7-.7-.7-1.5-.7-2.2v-10.4h3v8.9c0 .7 0 .7.7 1.5 0 .7.7.7.7.7.7.7.7.7 1.5.7zm17.8 2.2V1627h6.7c.7 0 1.5 0 2.2.7.7 0 .7.7 1.5 1.5.7.7.7.7.7 1.5v1.5c0 .7 0 1.5-.7 3-.7.7-1.5 1.5-2.2 1.5l3.7 5.2h-3l-3-5.2h-3v5.2l-2.9-.1zm3-7.4h4.4s.7 0 .7-.7c0 0 0-.7.7-.7v-1.4s0-.7-.7-.7l-.7-.7h-4.4v4.2zm43-4.4h-4.5v11.9h-3V1630h-4.5v-2.2h12.6v2.2h-.6zm7.5 11.8l5.9-14.9h2.2l5.9 14.9h-3l-1.5-3.7h-5.2l-1.5 3.7h-2.8zm6.7-11.1l-2.2 5.9h4.5l-2.3-5.9zm27.4 9.6c-1.5 1.5-2.2 1.5-3.7 1.5-.7 0-1.5 0-3-.7-.7-.7-1.5-.7-2.2-1.5s-.7-1.5-1.5-2.2c0-.7-.7-2.2-.7-3s0-2.2.7-3c0-.7.7-1.5 1.5-2.2.7-.7 1.5-1.5 2.2-1.5.7-.7 1.5-.7 3-.7s2.2 0 3.7.7l2.2 2.2-2.2 1.5c0-.7-.7-1.5-1.5-1.5-.7-.7-1.5-.7-2.2-.7s-1.5 0-1.5.7c-.7 0-.7.7-1.5.7 0 .7-.7.7-.7 1.5v4.4c0 .7.7 1.5.7 1.5.7.7.7.7 1.5.7.7 0 .7.7 1.5.7 1.5 0 2.2-.7 3.7-2.2v-.7h-3v-2.2h5.2v7.4h-2.2v-1.4zm12.7 1.5V1627h3v11.9h7.4v2.2h-10.4v.7zm20.7 0V1627h3v14.9h-3zm17.1-8.9v9.7h-3v-14.9h2.2l7.4 9.7v-9.7h3v14.9h-2.2l-7.4-9.7zm32 6.7v2.2h-10.4V1627h10.4v2.2h-7.4v3.7h5.9v2.2h-5.9v3.7h7.4v.8zm32.6-8.2c-.7 0-.7-.7 0 0-.7-.7-.7-.7-1.5-.7 0 0-.7 0-1.5-.7h-1.5c-.7 0-1.5 0-1.5.7-.7 0-.7.7-.7 1.5v.7s0 .7.7.7c0 0 .7 0 .7.7.7 0 .7 0 1.5.7.7 0 1.5.7 2.2.7s.7.7 1.5.7c.7 0 .7.7.7 1.5v1.5c0 .7 0 1.5-.7 2.2 0 .7-.7.7-1.5 1.5-.7 0-.7.7-1.5.7H337c-.7 0-2.2 0-3-.7-.7 0-2.2-.7-3-1.5l1.5-2.2.7.7s.7.7 1.5.7c.7 0 .7.7 1.5.7h1.5c1.5 0 2.2-.7 2.2-1.5v-.7l-.7-.7s-.7 0-1.5-.7c-.7 0-.7 0-1.5-.7-.7 0-1.5-.7-1.5-.7-.7 0-.7-.7-1.5-.7l-.7-.7v-1.5c0-.7 0-1.5.7-2.2 0-.7.7-.7 1.5-1.5.7-.7.7-.7 1.5-.7h2.2c.7 0 2.2 0 3 .7.7 0 1.5.7 2.2 1.5h-1.3zm11.9 10.4V1627h5.9c.7 0 1.5 0 2.2.7.7 0 .7.7 1.5 1.5.7.7.7.7.7 1.5v3c0 .7-.7.7-.7 1.5-.7.7-.7.7-1.5.7-.7 0-1.5.7-2.2.7h-3.7v5.2h-2.2zm3-7.4h3c.7 0 .7 0 1.5-.7 0-.7.7-.7.7-1.5v-.7s0-.7-.7-.7c0 0-.7 0-.7-.7h-3.7l-.1 4.3zm15.6 7.4l5.9-14.9h2.2l5.9 14.9h-3l-1.5-3.7h-5.2l-1.5 3.7h-2.8zm7.4-11.1l-2.2 5.9h4.5l-2.3-5.9zm15.6 3.7c0-.7 0-1.5.7-3 0-.7.7-1.5 1.5-2.2.7-.7 1.5-1.5 2.2-1.5.7-.7 2.2-.7 3-.7 1.5 0 2.2 0 3.7.7l2.2 2.2-2.2 1.5c0-.7-.7-.7-.7-.7l-.7-.7H404c-.7 0-1.5 0-1.5.7-.7 0-.7.7-1.5 1.5 0 .7-.7.7-.7 1.5v3.7c0 .7.7 1.5.7 1.5 0 .7.7.7 1.5.7s.7.7 1.5.7h.7s.7 0 .7-.7l.7-.7.7-.7 2.2 1.5c0 .7-.7.7-.7 1.5-.7.7-.7.7-1.5.7-.7 0-.7.7-1.5.7h-1.5c-.7 0-2.2 0-3-.7-.7-.7-1.5-.7-2.2-1.5-.7-.7-.7-1.5-1.5-2.2-1.3-1.6-1.3-2.3-1.3-3.8zm33.4 5.2v2.2h-10.4V1627h10.4v2.2h-7.4v3.7h5.9v2.2h-5.9v3.7h7.4v.8zm36.4-12.6v14.9h-3v-5.9h-6.7v5.9h-3V1627h3v5.9h6.7v-5.9h3zm21.5 12.6v2.2h-10.4V1627h10.4v2.2h-7.4v3.7h5.9v2.2h-5.9v3.7h7.4v.8zm11.2 2.2V1627h6.7c.7 0 1.5 0 2.2.7.7 0 .7.7 1.5 1.5.7.7.7.7.7 1.5v1.5c0 .7 0 1.5-.7 3-.7.7-1.5 1.5-2.2 1.5l3.7 5.2h-3.7l-3-5.2h-3v5.2l-2.2-.1zm2.2-7.4h4.4s.7 0 .7-.7c0 0 0-.7.7-.7v-1.4s0-.7-.7-.7l-.7-.7h-4.4v4.2zm29.7 5.2v2.2h-10.4V1627h10.4v2.2h-7.4v3.7h5.9v2.2h-5.9v3.7h7.4v.8zm-337.9-308.2v163.4c19.3 9.7 40.1 17.1 61.6 20.8V1376l46.8-34.9 46 34.9v139.6c21.5-4.5 42.3-11.1 61.6-20.8v-163.4l-107.7-78.7-108.3 78.7zm346.8-50.5c0-132.2-106.9-239.1-239.1-239.1S60.9 1149.5 60.9 1280.9c0 55 18.6 106.2 50.5 146.3v-135.1L300 1156.2l189.4 135.9V1428c31.1-40.9 49.7-91.4 49.7-147.1zm-407.7 21.6V1451c8.2 8.2 17.1 15.6 26 22.3v-159.7l143.3-104.7L444 1313.6v159.7c8.9-6.7 17.8-14.1 26-22.3v-148.5l-170-121.8-168.6 121.8z"/></g></svg>